<svg xmlns="http://www.w3.org/2000/svg" viewBox="0 0 162.57 227.73"><defs><style>.cls-1{isolation:isolate;}.cls-2{fill:#658d8e;}.cls-3{fill:#70bdb4;}.cls-4{fill:#fbae17;}.cls-5{fill:#f79858;}.cls-6{fill:#db8245;}.cls-7{fill:#2a2b2a;}.cls-8{fill:#99c0a1;}.cls-9{fill:#bfe1c8;}.cls-10{fill:#62aeb2;}.cls-11{fill:#e47128;}.cls-12{fill:#e5ad24;}.cls-13{fill:#00878f;}.cls-14{mix-blend-mode:multiply;}.cls-15{opacity:0;}.cls-16{opacity:0.01;}.cls-17{fill:#030101;}.cls-18{opacity:0.03;}.cls-19{fill:#050202;}.cls-20{opacity:0.04;}.cls-21{fill:#080303;}.cls-22{opacity:0.06;}.cls-23{fill:#0a0404;}.cls-24{opacity:0.07;}.cls-25{fill:#0d0505;}.cls-26{opacity:0.09;}.cls-27{fill:#100606;}.cls-28{opacity:0.1;}.cls-29{fill:#120707;}.cls-30{opacity:0.11;}.cls-31{fill:#150909;}.cls-32{opacity:0.13;}.cls-33{fill:#170a0a;}.cls-34{opacity:0.14;}.cls-35{fill:#1a0b0b;}.cls-36{opacity:0.16;}.cls-37{fill:#1d0c0c;}.cls-38{opacity:0.17;}.cls-39{fill:#1f0d0d;}.cls-40{opacity:0.19;}.cls-41{fill:#220e0e;}.cls-42{opacity:0.2;}.cls-43{fill:#250f0f;}.cls-44{opacity:0.21;}.cls-45{fill:#271010;}.cls-46{opacity:0.23;}.cls-47{fill:#2a1111;}.cls-48{opacity:0.24;}.cls-49{fill:#2c1212;}.cls-50{opacity:0.26;}.cls-51{fill:#2f1313;}.cls-52{opacity:0.27;}.cls-53{fill:#321414;}.cls-54{opacity:0.29;}.cls-55{fill:#341515;}.cls-56{opacity:0.3;}.cls-57{fill:#371616;}.cls-58{opacity:0.31;}.cls-59{fill:#391818;}.cls-60{opacity:0.33;}.cls-61{fill:#3c1919;}.cls-62{opacity:0.34;}.cls-63{fill:#3f1a1a;}.cls-64{opacity:0.36;}.cls-65{fill:#411b1b;}.cls-66{opacity:0.37;}.cls-67{fill:#441c1c;}.cls-68{opacity:0.39;}.cls-69{fill:#461d1d;}.cls-70{opacity:0.4;}.cls-71{fill:#491e1e;}.cls-72{opacity:0.41;}.cls-73{fill:#4c1f1f;}.cls-74{opacity:0.43;}.cls-75{fill:#4e2020;}.cls-76{opacity:0.44;}.cls-77{fill:#512121;}.cls-78{opacity:0.46;}.cls-79{fill:#542222;}.cls-80{opacity:0.47;}.cls-81{fill:#562323;}.cls-82{opacity:0.49;}.cls-83{fill:#592424;}.cls-84{opacity:0.5;}.cls-85{fill:#5b2525;}.cls-86{opacity:0.51;}.cls-87{fill:#5e2727;}.cls-88{opacity:0.53;}.cls-89{fill:#612828;}.cls-90{opacity:0.54;}.cls-91{fill:#632929;}.cls-92{opacity:0.56;}.cls-93{fill:#662a2a;}.cls-94{opacity:0.57;}.cls-95{fill:#682b2b;}.cls-96{opacity:0.59;}.cls-97{fill:#6b2c2c;}.cls-98{opacity:0.6;}.cls-99{fill:#6e2d2d;}.cls-100{fill:#cbd1d1;}</style></defs><title>Ativo 1</title><g class="cls-1"><g id="Camada_2" data-name="Camada 2"><g id="Camada_1-2" data-name="Camada 1"><g id="_Grupo_" data-name="&lt;Grupo&gt;"><ellipse id="_Caminho_" data-name="&lt;Caminho&gt;" class="cls-2" cx="81.29" cy="212.02" rx="65" ry="15.71"/><g id="_Grupo_2" data-name="&lt;Grupo&gt;"><g id="_Grupo_3" data-name="&lt;Grupo&gt;"><path id="_Caminho_2" data-name="&lt;Caminho&gt;" class="cls-3" d="M144.58,146.36s-9.45,27.13-19.6,47.82c-3.68,7.49-9.22,14.15-11.94,18.35-11.58,8-46.77,6.48-55.16,1.74-1.94-1.1-4.69-5.16-7.78-10.77-10.32-18.73-24.42-54.65-24.42-54.65Z"/><path id="_Caminho_3" data-name="&lt;Caminho&gt;" class="cls-4" d="M122.94,194.19a198.86,198.86,0,0,1-9.9,18.34c-11.58,8-46.77,6.48-55.16,1.74-1.94-1.1-4.69-5.16-7.78-10.77l8.74-6.1,14.08,10.07,17.53-15.09,15.69,10.45,16.17-9.58Z"/><g id="_Grupo_4" data-name="&lt;Grupo&gt;"><path id="_Caminho_4" data-name="&lt;Caminho&gt;" class="cls-5" d="M87,134.32s-60.23-1.15-61.65,14.54c-1.15,12.67,110.37,18.12,117.78-2.1C147.32,135.3,87,134.32,87,134.32Z"/><path id="_Caminho_5" data-name="&lt;Caminho&gt;" class="cls-6" d="M86.83,142.84s-40.51-.78-41.46,9.77c-.78,8.53,75.63,9.95,80-1.67C128.21,143.24,86.83,142.84,86.83,142.84Z"/></g><path id="_Caminho_composto_" data-name="&lt;Caminho composto&gt;" class="cls-7" d="M144,144.24a8,8,0,0,0-5.6-5.45c-4.8-1.55-10-2.19-15-2.94-21.48-3.25-45-4.57-66.56-1.56a136,136,0,0,0-14,2.72c-4.25,1-9,2-12.89,4.07-2.77,1.48-5.22,4.38-5.37,7.64-.11,2.26,1.14,4.3,1.78,6.4,6,19.64,15,39.44,27,56.15,5.07,7,14.74,7,22.6,7.51a139,139,0,0,0,30.78-.88c10.41-1.62,14.69-13.13,18.93-21.33q6.22-12.06,11.67-24.49c2.67-6.12,5.28-12.3,6.64-18.86C144.56,150.13,144.82,146.91,144,144.24Zm-6.74,19.7c-2.51,5.58-5,11.19-7.56,16.72q-3.78,8-7.85,15.88c-1.6,3.07-3.34,6.05-5,9.09-1.21,2.23-3.41,4.52-4.81,6.64s-4.18,1.53-6.49,2-4.61.8-6.94,1a119.26,119.26,0,0,1-13.76.52,124.3,124.3,0,0,1-14-1c-3.94-.5-8.31-.79-12.25-1.66a2.21,2.21,0,0,0-.28-.52,148.06,148.06,0,0,1-17.1-29.2c-2.22-5-4.23-10.13-6.13-15.28-.95-2.58-1.87-5.17-2.88-7.73-.62-1.56-1.59-3.21-2.41-4.88,2.85,1.14,6.11,1.46,9.06,2q8.4,1.42,16.87,2.3a250.78,250.78,0,0,0,60.48-.85c7.7-1.08,19-2.7,25.52-7.54C140,155.15,138.9,160.27,137.24,163.94Zm3.95-15.45c-2.54,3.3-7.23,4.79-11.09,5.89a78.37,78.37,0,0,1-12.83,2.19,278.46,278.46,0,0,1-50.66,1.5c-8.27-.58-16.54-1.49-24.73-2.78-3.57-.56-7.46-.88-10.88-2.11a6.5,6.5,0,0,1-2.69-1.67,1.31,1.31,0,0,0-.61-.89c-1.34-2.65.89-6.13,4.37-7.71,13.7-6.21,29-7.72,43.89-7.72a318,318,0,0,1,45.62,3.06c3.9.56,7.79,1.23,11.66,2S145.8,142.53,141.19,148.49Z"/><path id="_Caminho_6" data-name="&lt;Caminho&gt;" class="cls-7" d="M58.21,197.21c-2.9,1.16-5.4,3.15-8.41,4-1.72.5-.45,3.34,1.16,2.25,2.59-1.75,5.75-2.41,8.49-3.9C60.81,198.86,59.62,196.64,58.21,197.21Z"/><path id="_Caminho_7" data-name="&lt;Caminho&gt;" class="cls-7" d="M74.4,206.13c-1.59-2-4.14-3.08-6.34-4.33-2.67-1.52-5.37-3-8-4.56-1.4-.85-2.52,1.47-1.11,2.3,2.51,1.48,4.93,3.08,7.39,4.63,2.16,1.36,4.4,3.21,7,3.67C74.17,208,75,206.91,74.4,206.13Z"/><path id="_Caminho_8" data-name="&lt;Caminho&gt;" class="cls-7" d="M89.3,191c-3,1.76-5.72,4.74-8.34,7.12s-5.2,5.2-8.12,7.41a1.27,1.27,0,1,0,1.7,1.88c2.71-2.87,6-5.24,8.9-7.87,2.44-2.18,5.38-4.27,7.32-6.92A1.11,1.11,0,0,0,89.3,191Z"/><path id="_Caminho_9" data-name="&lt;Caminho&gt;" class="cls-7" d="M106.53,201.58c-4-4.34-10.37-6.33-14.89-10.07-1.41-1.17-3,1.25-1.38,2.12,5.19,2.74,9.46,7.88,15,9.87A1.16,1.16,0,0,0,106.53,201.58Z"/><path id="_Caminho_10" data-name="&lt;Caminho&gt;" class="cls-7" d="M122.9,191.56c-2.57,1.2-5,2.69-7.5,4.09-2.89,1.63-5.93,3.92-9.06,5-1.78.62-.31,3.38,1.16,2.25,2.55-2,6.08-3.27,8.91-4.75,2.6-1.35,5.28-2.63,7.77-4.18C125.49,193.18,124.34,190.89,122.9,191.56Z"/><path id="_Caminho_11" data-name="&lt;Caminho&gt;" class="cls-7" d="M117.39,142.59a178.73,178.73,0,0,0-31.55-3.32,170,170,0,0,0-32.41,2.49C45,143.27,35.77,146.2,31.3,154.2a.66.66,0,0,0,1.09.71c5.4-6.95,13.4-9.69,21.83-11.11a177.81,177.81,0,0,1,54.45-.45q6.58,1,13.09,2.43c4.54,1,12.55,2.22,11.91,8.51-.13,1.32,1.91.88,2.17-.43C137.74,144.51,123.41,143.78,117.39,142.59Z"/><path id="_Caminho_12" data-name="&lt;Caminho&gt;" class="cls-7" d="M27.71,145.35c.52,1.26.2,3,.2,4.32s0,2.58.09,3.86a.51.51,0,0,0,1-.07c0-1.29,0-2.58-.1-3.86s-.45-3,0-4.19S27.3,144.34,27.71,145.35Z"/><path id="_Caminho_13" data-name="&lt;Caminho&gt;" class="cls-7" d="M30.61,142.11c0-.82-1.37-.73-1.27.1.51,4,.37,8.14.72,12.21a.68.68,0,0,0,1.36-.11C31.26,150.23,30.62,146.19,30.61,142.11Z"/><path id="_Caminho_14" data-name="&lt;Caminho&gt;" class="cls-7" d="M32.55,141.74c0,3.48-.22,7-.1,10.46,0,.61,1,.69,1.08.07.25-3.53.21-7.1.29-10.63C33.84,140.82,32.56,140.92,32.55,141.74Z"/><path id="_Caminho_15" data-name="&lt;Caminho&gt;" class="cls-7" d="M35,140.52a17,17,0,0,1,.27,4.4c0,1.31,0,2.63.16,3.93a.45.45,0,0,0,.89-.06c0-1.31,0-2.62-.09-3.93a17.36,17.36,0,0,1,0-4.44C36.41,139.44,34.63,139.44,35,140.52Z"/><path id="_Caminho_16" data-name="&lt;Caminho&gt;" class="cls-7" d="M38.44,139.07c.43,2.64.1,5.36.31,8a.44.44,0,0,0,.88-.06c.13-2.62-.28-5.28.07-7.89C39.83,138.17,38.3,138.19,38.44,139.07Z"/><path id="_Caminho_17" data-name="&lt;Caminho&gt;" class="cls-7" d="M42.57,137.76a54.33,54.33,0,0,1,.21,7.22c0,.56.86.5.86,0a52.5,52.5,0,0,1,.19-7.1C44,136.87,42.45,136.86,42.57,137.76Z"/><path id="_Caminho_18" data-name="&lt;Caminho&gt;" class="cls-7" d="M46,137.13a11.13,11.13,0,0,1,.13,3.46c0,1,0,2.08,0,3.13,0,.62,1,.56,1-.07,0-1,0-2.08,0-3.12a11,11,0,0,1,.12-3.34C47.53,136,45.59,136.08,46,137.13Z"/><path id="_Caminho_19" data-name="&lt;Caminho&gt;" class="cls-7" d="M49.14,136.83a10.51,10.51,0,0,1,0,3.12c0,.94-.06,1.89,0,2.83,0,.72,1.06.6,1.09-.08,0-.94,0-1.89,0-2.83a10.24,10.24,0,0,1,.12-3.13C50.66,135.82,48.79,135.7,49.14,136.83Z"/><path id="_Caminho_20" data-name="&lt;Caminho&gt;" class="cls-7" d="M52.18,135.89c.49,1,.13,2.52.08,3.55s-.09,2.14-.12,3.21c0,.7,1.08.62,1.08-.08,0-1.06,0-2.13,0-3.19s-.31-2.57.16-3.43C54,134.81,51.63,134.82,52.18,135.89Z"/><path id="_Caminho_21" data-name="&lt;Caminho&gt;" class="cls-7" d="M56.48,135.66c0-.82-1.37-.72-1.27.1.25,2,.47,4.05.64,6.09a.57.57,0,0,0,1.14-.09Q56.68,138.71,56.48,135.66Z"/><path id="_Caminho_22" data-name="&lt;Caminho&gt;" class="cls-7" d="M60,134.7c-.09-.81-1.36-.72-1.27.1.26,2.28.38,4.64.83,6.89a.58.58,0,0,0,1.16-.09C60.62,139.31,60.21,137,60,134.7Z"/><path id="_Caminho_23" data-name="&lt;Caminho&gt;" class="cls-7" d="M64.64,134.5c0-.83-1.41-.71-1.28.1.3,1.76.44,3.51.64,5.28.08.71,1.18.63,1.11-.08C64.94,138,64.71,136.28,64.64,134.5Z"/><path id="_Caminho_24" data-name="&lt;Caminho&gt;" class="cls-7" d="M68.1,134.23a8.53,8.53,0,0,1,.14,2.86c0,.87,0,1.73.13,2.59a.58.58,0,0,0,1.16-.08c0-.87,0-1.73-.1-2.6a8.9,8.9,0,0,1-.1-2.86C69.63,133.14,67.67,133.18,68.1,134.23Z"/><path id="_Caminho_25" data-name="&lt;Caminho&gt;" class="cls-7" d="M73.63,133.45a.64.64,0,0,0-1.27.1c.16,2.31.31,4.61.47,6.91a.61.61,0,0,0,1.21-.1Z"/><path id="_Caminho_26" data-name="&lt;Caminho&gt;" class="cls-7" d="M77.28,134.15a10.76,10.76,0,0,1,.09,2.95c0,.89,0,1.78,0,2.67,0,.72,1.09.62,1.1-.08,0-.9,0-1.79,0-2.68a10.86,10.86,0,0,1,0-3C78.76,133.1,77,133.05,77.28,134.15Z"/><path id="_Caminho_27" data-name="&lt;Caminho&gt;" class="cls-7" d="M83.45,133.05c-.14-.58-.94-.31-1,.2a51.45,51.45,0,0,0,.44,5.8c.07.82,1.38.72,1.29-.1A52.9,52.9,0,0,0,83.45,133.05Z"/><path id="_Caminho_28" data-name="&lt;Caminho&gt;" class="cls-7" d="M90.08,133.7c-.1-.81-1.38-.72-1.27.1a38.53,38.53,0,0,0,.86,5.89c.18.62,1,.35,1-.21A37.55,37.55,0,0,0,90.08,133.7Z"/><path id="_Caminho_29" data-name="&lt;Caminho&gt;" class="cls-7" d="M95.33,133.64c-.07-.37-.62-.48-.71,0a19.33,19.33,0,0,0-.2,3.23,24.6,24.6,0,0,0,0,3.64c.07.57,1,.69,1.06.07a22.29,22.29,0,0,0,0-3.27A21.84,21.84,0,0,0,95.33,133.64Z"/><path id="_Caminho_30" data-name="&lt;Caminho&gt;" class="cls-7" d="M100.44,140.84c-.33-2.24-.58-4.49-.9-6.74a.38.38,0,0,0-.76.05c.2,2.56.49,5.11.64,7.67a.58.58,0,0,0,.91.43l.46-.26C101.34,141.66,101,140.87,100.44,140.84Z"/><path id="_Caminho_31" data-name="&lt;Caminho&gt;" class="cls-7" d="M103.8,134.75c0,2.24-.16,4.52,0,6.76,0,.68,1.18.79,1.23.07.16-2.3.06-4.63.07-6.93C105.08,133.83,103.81,133.93,103.8,134.75Z"/><path id="_Caminho_32" data-name="&lt;Caminho&gt;" class="cls-7" d="M108.83,135a.52.52,0,0,0-1,.07c.12,2.29.26,4.64.59,6.9a.63.63,0,0,0,1.26-.09C109.51,139.58,109.17,137.24,108.83,135Z"/><path id="_Caminho_33" data-name="&lt;Caminho&gt;" class="cls-7" d="M113.52,136.21c0-.81-1.37-.73-1.27.1.23,1.85.16,3.77.21,5.63,0,.86,1.38.76,1.34-.11C113.69,140,113.46,138.07,113.52,136.21Z"/><path id="_Caminho_34" data-name="&lt;Caminho&gt;" class="cls-7" d="M118,136.24c-.14-.49-.82-.29-.83.16a33.07,33.07,0,0,0,.7,6.11c.13.72,1.23.68,1.16-.09A33,33,0,0,0,118,136.24Z"/><path id="_Caminho_35" data-name="&lt;Caminho&gt;" class="cls-7" d="M125.32,144.93a22.2,22.2,0,0,1-1.06-8.05c.07-.81-1.21-1-1.26-.24a20.12,20.12,0,0,0,1.14,8.71A.63.63,0,0,0,125.32,144.93Z"/><path id="_Caminho_36" data-name="&lt;Caminho&gt;" class="cls-7" d="M127.84,138.38a14.68,14.68,0,0,1,0,4.08,34,34,0,0,0-.07,3.64c0,.69,1.18.79,1.24.07a34,34,0,0,0,0-3.5,16.11,16.11,0,0,1,.07-4.39C129.34,137.37,127.53,137.24,127.84,138.38Z"/><path id="_Caminho_37" data-name="&lt;Caminho&gt;" class="cls-7" d="M133.17,139.3a83.47,83.47,0,0,0-.85,9.19c0,.66,1,.71,1.15.06a82.76,82.76,0,0,0,.6-9.19C134.1,138.85,133.23,138.79,133.17,139.3Z"/><path id="_Caminho_38" data-name="&lt;Caminho&gt;" class="cls-7" d="M138.32,140.66c-.15,3.81-2.09,7.69-2.92,11.38-.19.87,1.11,1.1,1.34.26,1-3.65,1.13-8,2.79-11.41C140,140,138.36,139.55,138.32,140.66Z"/><path id="_Caminho_39" data-name="&lt;Caminho&gt;" class="cls-7" d="M140.76,142.35c-.32,3.1-1.73,6.16-2.28,9.25a.73.73,0,0,0,1.43.27c.88-3,1-6.26,2.06-9.12C142.31,141.83,140.86,141.47,140.76,142.35Z"/></g><g id="_Grupo_5" data-name="&lt;Grupo&gt;"><path id="_Caminho_40" data-name="&lt;Caminho&gt;" class="cls-8" d="M81.2,119.36l-.15-.09c-63-34.34-61.3-103.24-60.67-103l.64.26C62,33.34,76.88,82.51,81.2,119.36Z"/><path id="_Caminho_41" data-name="&lt;Caminho&gt;" class="cls-9" d="M81.05,119.27c-63-34.34-61.3-103.24-60.67-103l.64.26C31,34.94,71.53,109,78.85,116.68,79.88,117.83,80.58,118.66,81.05,119.27Z"/><path id="_Caminho_composto_2" data-name="&lt;Caminho composto&gt;" class="cls-7" d="M20.15,15.8c-.49,1.61.08,5.54.14,6.55a116.1,116.1,0,0,0,5.6,30.11c6.29,19.3,13.57,34,31.79,51.45,7.11,6.82,15.6,12.08,24.14,17,.47.28.86-.12.9-.55a1,1,0,0,0,.48-1.16c-5.12-22-8.92-45.44-20.48-65.24A99.87,99.87,0,0,0,44,30.37,112.51,112.51,0,0,0,28.88,18.72c-1.18-.75-7-4.16-8.28-3.58A1,1,0,0,0,20.15,15.8Zm41.45,41c10.5,18.93,14.19,41,19,61.86C44.93,97.23,23.4,58.49,21.8,17.22A101.29,101.29,0,0,1,61.6,56.76Z"/><path id="_Caminho_42" data-name="&lt;Caminho&gt;" class="cls-7" d="M20.92,17.49C38.59,52.81,58.58,87,79.38,120.61c.71,1.15,2.37-.14,1.66-1.28C60.33,85.84,41.15,51.48,22.18,17,21.77,16.25,20.53,16.7,20.92,17.49Z"/><path id="_Caminho_43" data-name="&lt;Caminho&gt;" class="cls-7" d="M25.64,19.58c-.18.56-.35,1.11-.51,1.67s-.25,1.69-.72,1.95-.26,1.05.22,1.18a.67.67,0,0,0,.81-.89c-.15-.39.45-1.26.61-1.63.26-.58.51-1.17.74-1.76C27.08,19.34,25.9,18.83,25.64,19.58Z"/><path id="_Caminho_44" data-name="&lt;Caminho&gt;" class="cls-7" d="M28.66,21.58a7.38,7.38,0,0,0-1.27,2.28A23.65,23.65,0,0,1,26,26.7c-.56.87.82,1.58,1.14.7a22.86,22.86,0,0,1,1.32-2.84A8.12,8.12,0,0,0,29.54,22,.51.51,0,0,0,28.66,21.58Z"/><path id="_Caminho_45" data-name="&lt;Caminho&gt;" class="cls-7" d="M30.8,22c-1.2,2.67-1.53,5.67-2.83,8.29-.43.86,1.11,1.38,1.28.38.5-2.88,2-5.5,2.61-8.35A.56.56,0,0,0,30.8,22Z"/><path id="_Caminho_46" data-name="&lt;Caminho&gt;" class="cls-7" d="M33.15,24.12q-.69,2.39-1.35,4.78a26.06,26.06,0,0,1-1.64,5.39c-.47.89,1.22,1.38,1.28.38A27.3,27.3,0,0,1,33,29.08c.47-1.59,1-3.18,1.4-4.77C34.59,23.54,33.37,23.37,33.15,24.12Z"/><path id="_Caminho_47" data-name="&lt;Caminho&gt;" class="cls-7" d="M36.65,26.75c-2.09,3.44-2.48,7.82-4.24,11.44-.41.85,1.07,1.37,1.29.37C34.54,34.64,36.94,31,37.4,27A.4.4,0,0,0,36.65,26.75Z"/><path id="_Caminho_48" data-name="&lt;Caminho&gt;" class="cls-7" d="M40.35,29.31c-2,4.75-3.37,9.88-5,14.79-.27.82,1,1.37,1.24.55,1.65-4.95,3.66-9.92,4.89-15C41.65,29,40.61,28.69,40.35,29.31Z"/><path id="_Caminho_49" data-name="&lt;Caminho&gt;" class="cls-7" d="M43.16,31.53c-1.52,6-2.36,12.34-4.16,18.29-.29,1,1.15,1.33,1.28.37.89-6.2,2.8-12.32,4-18.48C44.4,31,43.33,30.85,43.16,31.53Z"/><path id="_Caminho_50" data-name="&lt;Caminho&gt;" class="cls-7" d="M46.56,35.64c-1.7,7.48-2.24,15.19-3.66,22.72a.68.68,0,0,0,1.34.21C45.16,51,47,43.45,47.62,35.81A.54.54,0,0,0,46.56,35.64Z"/><path id="_Caminho_51" data-name="&lt;Caminho&gt;" class="cls-7" d="M51.64,41.27c-2,7.91-2.38,16.22-4,24.22-.17.86,1.23,1.07,1.34.21,1-8.09,3.22-16.11,3.76-24.25A.58.58,0,0,0,51.64,41.27Z"/><path id="_Caminho_52" data-name="&lt;Caminho&gt;" class="cls-7" d="M56.12,46a110.64,110.64,0,0,0-2.86,11.09c-1,4.29-1.43,9.35-3.17,13.39-.41,1,1.22,1.33,1.28.38.25-4.06,2-8.32,3-12.27a124,124,0,0,0,2.75-12.3C57.15,45.72,56.31,45.41,56.12,46Z"/><path id="_Caminho_53" data-name="&lt;Caminho&gt;" class="cls-7" d="M60.35,54.4c-3.07,6.31-4.46,13.54-6.67,20.18-.27.83,1,1.38,1.24.56,2-6.75,5.08-13.51,6.22-20.49A.42.42,0,0,0,60.35,54.4Z"/><path id="_Caminho_54" data-name="&lt;Caminho&gt;" class="cls-7" d="M65.26,61.06c-4.14,5.93-5.58,13.78-8.6,20.3-.38.81,1,1.37,1.23.56,2.28-6.83,6.65-13.55,7.71-20.7C65.63,61,65.38,60.89,65.26,61.06Z"/><path id="_Caminho_55" data-name="&lt;Caminho&gt;" class="cls-7" d="M68.05,69.68C65,75.31,63,81.46,59.81,87.05c-.43.75.81,1.31,1.24.55,3-5.5,6.66-11.42,8-17.63C69.15,69.38,68.32,69.2,68.05,69.68Z"/><path id="_Caminho_56" data-name="&lt;Caminho&gt;" class="cls-7" d="M71.29,76.31C68.78,81.18,66.71,86.45,63.55,91a.67.67,0,1,0,1.14.7c2.72-4.92,5.88-9.47,7.9-14.77A.71.71,0,0,0,71.29,76.31Z"/><path id="_Caminho_57" data-name="&lt;Caminho&gt;" class="cls-7" d="M73.58,84.3c-3.21,3.27-5,7.61-8.08,11-.63.69.63,1.59,1.14.7,2.24-3.95,5.77-7,7.85-11.12C74.79,84.29,74,83.88,73.58,84.3Z"/><path id="_Caminho_58" data-name="&lt;Caminho&gt;" class="cls-7" d="M74.93,88.29c-2.48,3.65-4.13,8-6.83,11.48-.6.78.75,1.6,1.15.7,1.78-4,4.81-7.55,6.84-11.48C76.44,88.32,75.37,87.65,74.93,88.29Z"/><path id="_Caminho_59" data-name="&lt;Caminho&gt;" class="cls-7" d="M76.68,96.69c-2.14,2-3.43,5.16-5.84,6.84-.89.62.53,1.86,1,.82,1.23-2.61,4.1-4.36,5.68-6.75C77.9,97.05,77.24,96.16,76.68,96.69Z"/><path id="_Caminho_60" data-name="&lt;Caminho&gt;" class="cls-7" d="M77.64,103.46A20.5,20.5,0,0,0,75,105.64l-2.62,2.24c-.66.56.13,1.65.8,1.08l2.79-2.34a20.48,20.48,0,0,0,2.56-2.26C79,103.78,78.22,103.11,77.64,103.46Z"/><path id="_Caminho_61" data-name="&lt;Caminho&gt;" class="cls-7" d="M79.58,108.85c-1.43,1.09-2.7,2.5-4,3.72-.64.58.17,1.68.8,1.08,1.36-1.27,2.92-2.45,4.15-3.84C81,109.24,80.19,108.39,79.58,108.85Z"/></g><g id="_Grupo_6" data-name="&lt;Grupo&gt;"><path id="_Caminho_62" data-name="&lt;Caminho&gt;" class="cls-8" d="M91.56,128.19c-.09-.5-.17-1-.25-1.49-11-69.95,43.64-110.62,43.83-110,.13.47.27.94.4,1.41C147.07,60.51,117.73,102.2,91.56,128.19Z"/><path id="_Caminho_63" data-name="&lt;Caminho&gt;" class="cls-9" d="M91.45,126.71h-.14c-11-69.95,43.64-110.62,43.83-110,.13.47.27.94.4,1.41C126.73,38.06,90.88,119.79,91.45,126.71Z"/><path id="_Caminho_composto_3" data-name="&lt;Caminho composto&gt;" class="cls-7" d="M135.37,16.24a31.15,31.15,0,0,0-5.63,3.4c-7.73,6.73-14,15.23-19.68,23.74C98.76,60.24,91.69,75,89.2,100.15c-1,9.8.12,19.73,1.52,29.48a.6.6,0,0,0,1,.37,1,1,0,0,0,1.2-.33C107.1,112,123.17,94.6,131.61,73.29c3.63-9.17,6.67-18.86,7.32-28.7a108.52,108.52,0,0,0,0-18.82c-.14-1.39-.76-9.17-2-9.83A4.19,4.19,0,0,0,135.37,16.24Zm-6.64,57.9c-8.42,19.94-23.5,36.45-37,53.13-4.19-33.4,6.44-66.37,27.09-92.1,7.28-9.08,9.61-12,16.41-16.75A101.4,101.4,0,0,1,128.73,74.14Z"/><path id="_Caminho_64" data-name="&lt;Caminho&gt;" class="cls-7" d="M134.52,17.9C117.63,53.6,103,90.44,89.45,127.53c-.46,1.27,1.57,1.78,2,.52,13.57-37,28.77-73.26,44.2-109.47C136,17.8,134.89,17.1,134.52,17.9Z"/><path id="_Caminho_65" data-name="&lt;Caminho&gt;" class="cls-7" d="M135.78,22.9c-.55.19-1.09.41-1.63.63s-1.48.84-2,.63-1,.45-.8.9a.67.67,0,0,0,1.2.1c.21-.36,1.28-.43,1.66-.53.62-.16,1.24-.32,1.84-.51C136.86,23.88,136.54,22.63,135.78,22.9Z"/><path id="_Caminho_66" data-name="&lt;Caminho&gt;" class="cls-7" d="M136.07,26.5a7.56,7.56,0,0,0-2.57.41,22.21,22.21,0,0,1-3.13.62c-1,.1-.73,1.63.15,1.33a22.86,22.86,0,0,1,3-.71,7.92,7.92,0,0,0,2.73-.71A.51.51,0,0,0,136.07,26.5Z"/><path id="_Caminho_67" data-name="&lt;Caminho&gt;" class="cls-7" d="M137.1,28.42c-2.84.7-5.41,2.29-8.27,2.89-.94.19-.4,1.72.5,1.24,2.56-1.38,5.55-1.82,8.17-3.1A.56.56,0,0,0,137.1,28.42Z"/><path id="_Caminho_68" data-name="&lt;Caminho&gt;" class="cls-7" d="M136.85,31.61c-1.54.61-3.07,1.25-4.6,1.88a26.14,26.14,0,0,1-5.26,2c-1,.17-.33,1.81.5,1.25a26.81,26.81,0,0,1,5.34-2.25c1.54-.61,3.09-1.21,4.62-1.84C138.19,32.38,137.58,31.32,136.85,31.61Z"/><path id="_Caminho_69" data-name="&lt;Caminho&gt;" class="cls-7" d="M136.94,36c-4,.47-7.69,2.87-11.62,3.72-.93.2-.42,1.69.5,1.24,3.61-1.75,8-2.13,11.4-4.23A.4.4,0,0,0,136.94,36Z"/><path id="_Caminho_70" data-name="&lt;Caminho&gt;" class="cls-7" d="M137.2,40.47c-5,1.34-9.85,3.45-14.71,5.21-.81.29-.49,1.6.33,1.31,4.92-1.76,10.07-3.25,14.82-5.41C138.26,41.3,137.85,40.3,137.2,40.47Z"/><path id="_Caminho_71" data-name="&lt;Caminho&gt;" class="cls-7" d="M137.19,44.06c-5.69,2.53-11.16,5.75-17,8-.93.36-.34,1.72.5,1.24,5.43-3.13,11.42-5.41,17-8.28C138.38,44.7,137.83,43.77,137.19,44.06Z"/><path id="_Caminho_72" data-name="&lt;Caminho&gt;" class="cls-7" d="M136.06,49.27c-6.94,3.28-13.34,7.61-20.14,11.14-.78.4-.08,1.63.66,1.18,6.56-4,13.59-7.17,20-11.38A.54.54,0,0,0,136.06,49.27Z"/><path id="_Caminho_73" data-name="&lt;Caminho&gt;" class="cls-7" d="M134.76,56.74c-7.46,3.3-14.23,8.14-21.5,11.84-.77.39-.08,1.63.67,1.18,7-4.22,14.66-7.41,21.4-12A.58.58,0,0,0,134.76,56.74Z"/><path id="_Caminho_74" data-name="&lt;Caminho&gt;" class="cls-7" d="M133.82,63.16a113.22,113.22,0,0,0-10.48,4.6c-4,1.85-8.24,4.64-12.5,5.76-1,.27-.29,1.79.5,1.25,3.34-2.3,7.76-3.57,11.47-5.25s7.77-3.32,11.38-5.42C134.66,63.82,134.38,63,133.82,63.16Z"/><path id="_Caminho_75" data-name="&lt;Caminho&gt;" class="cls-7" d="M129.8,71.7c-6.85,1.48-13.41,4.84-20,7.21-.82.29-.47,1.62.33,1.31,6.57-2.56,13.77-4.34,20-7.75A.42.42,0,0,0,129.8,71.7Z"/><path id="_Caminho_76" data-name="&lt;Caminho&gt;" class="cls-7" d="M127.6,79.67c-7.22.4-14.29,4.12-21.29,5.76-.86.2-.48,1.6.33,1.31,6.77-2.42,14.76-3.12,21-6.7C127.84,80,127.8,79.65,127.6,79.67Z"/><path id="_Caminho_77" data-name="&lt;Caminho&gt;" class="cls-7" d="M122.54,87.19c-6.33,1.06-12.36,3.33-18.76,4.23-.86.12-.53,1.45.33,1.31,6.2-1,13.1-1.8,18.79-4.6C123.45,87.86,123.08,87.1,122.54,87.19Z"/><path id="_Caminho_78" data-name="&lt;Caminho&gt;" class="cls-7" d="M119.32,93.83c-5.39,1-10.81,2.65-16.3,2.94a.67.67,0,1,0,.15,1.33c5.55-.9,11.08-1.22,16.5-2.9A.71.71,0,0,0,119.32,93.83Z"/><path id="_Caminho_79" data-name="&lt;Caminho&gt;" class="cls-7" d="M114.44,100.55c-4.55-.5-9.1.74-13.63.43-.94-.06-.87,1.49.15,1.33,4.49-.68,9.11.19,13.6-.68C115.2,101.5,115,100.62,114.44,100.55Z"/><path id="_Caminho_80" data-name="&lt;Caminho&gt;" class="cls-7" d="M112.14,104.09c-4.41.29-8.84,1.68-13.25,1.71-1,0-.8,1.57.15,1.33,4.28-1.09,8.91-.87,13.25-1.7C113,105.29,112.91,104,112.14,104.09Z"/><path id="_Caminho_81" data-name="&lt;Caminho&gt;" class="cls-7" d="M106.6,110.64c-2.88-.45-6.17.49-9-.37-1-.32-1.14,1.56,0,1.31,2.81-.64,6,.53,8.82.3C107.08,111.83,107.37,110.76,106.6,110.64Z"/><path id="_Caminho_82" data-name="&lt;Caminho&gt;" class="cls-7" d="M101.87,115.58a21.23,21.23,0,0,0-3.36-.76l-3.38-.68c-.85-.17-1.22,1.12-.36,1.3l3.57.75a20.35,20.35,0,0,0,3.35.62A.63.63,0,0,0,101.87,115.58Z"/><path id="_Caminho_83" data-name="&lt;Caminho&gt;" class="cls-7" d="M98.83,120.43c-1.74-.46-3.63-.58-5.41-.88-.86-.14-1.22,1.17-.37,1.31,1.84.28,3.73.77,5.59.89A.68.68,0,0,0,98.83,120.43Z"/></g><g id="_Grupo_7" data-name="&lt;Grupo&gt;"><path id="_Caminho_84" data-name="&lt;Caminho&gt;" class="cls-8" d="M87.15,152.22c-27.39-5-70.3-33-85.75-83.58-.08-.21-.14-.43-.21-.65C1.19,68,69.47,76.05,87.15,152.22Z"/><path id="_Caminho_85" data-name="&lt;Caminho&gt;" class="cls-9" d="M87.15,152.22c-27.39-5-70.3-33-85.75-83.58Z"/><path id="_Caminho_86" data-name="&lt;Caminho&gt;" class="cls-7" d="M87.08,150.05c-11.12.09-21.11-6-30.23-11.8a133.07,133.07,0,0,1-23.38-19,143.45,143.45,0,0,1-32-51.38c-.3-.82-1.64-.58-1.37.31,6.07,20.13,17.71,38.52,32.48,53.42A136.82,136.82,0,0,0,57,141.14c8.61,5.4,19.46,11.73,30,10.83C88.21,151.87,88.35,150,87.08,150.05Z"/><path id="_Caminho_87" data-name="&lt;Caminho&gt;" class="cls-7" d="M88.2,150.71c-3.51-10.52-7.12-21.14-12.51-30.87S62.76,101.9,54.79,94.22C47.11,86.83,38.72,80,29.25,75.09A65.07,65.07,0,0,0,.69,67.53a.68.68,0,0,0-.07,1.35c20.74,1.08,39,13.88,53.31,27.88,7.65,7.46,14.78,15.39,20,24.79s8.69,19.56,12.19,29.67C86.55,152.53,88.65,152,88.2,150.71Z"/><path id="_Caminho_88" data-name="&lt;Caminho&gt;" class="cls-7" d="M86.63,150.71C72.37,137,58.22,123.08,44,109.24Q33.53,99,23.1,88.61c-3.47-3.45-6.91-6.93-10.41-10.36s-7.84-6.82-11-10.67c-.57-.68-1.65.36-1,.92,3.65,3.14,6.74,7.22,10.1,10.69s6.89,7,10.36,10.43q10.63,10.62,21.39,21.12c14.18,13.87,28.63,27.38,43.24,40.8C86.31,152.06,87.21,151.26,86.63,150.71Z"/><path id="_Caminho_89" data-name="&lt;Caminho&gt;" class="cls-7" d="M6.22,68.84A.68.68,0,1,0,5,69.31c.51,1.3.92,2.72,1.55,4A.48.48,0,0,0,7.4,73,42.69,42.69,0,0,0,6.22,68.84Z"/><path id="_Caminho_90" data-name="&lt;Caminho&gt;" class="cls-7" d="M10.11,73.47a19,19,0,0,1-1.27-4.24c-.07-1.21-1.8-.6-1.27.28a18.56,18.56,0,0,1,1.35,4.22c.38,1.26.74,2.53,1.14,3.78.25.77,1.47.52,1.24-.27C10.93,76,10.51,74.73,10.11,73.47Z"/><path id="_Caminho_91" data-name="&lt;Caminho&gt;" class="cls-7" d="M13.2,69.76c-.19-.87-1.61-.5-1.32.3,1.7,4.66,2.83,9.54,4.23,14.3.23.78,1.47.51,1.24-.27C16,79.32,14.28,74.6,13.2,69.76Z"/><path id="_Caminho_92" data-name="&lt;Caminho&gt;" class="cls-7" d="M17.85,71.16c-.05-1-1.54-.84-1.34.12,1.13,5.36,1.72,10.74,3.33,16,.23.76,1.42.51,1.21-.27C19.69,81.89,18.08,76.51,17.85,71.16Z"/><path id="_Caminho_93" data-name="&lt;Caminho&gt;" class="cls-7" d="M21.42,72.39c-.09-.89-1.62-.54-1.25.46,2.13,5.74,2.73,12.31,4.27,18.25a.65.65,0,0,0,1.27-.28C24.44,84.76,22.07,78.52,21.42,72.39Z"/><path id="_Caminho_94" data-name="&lt;Caminho&gt;" class="cls-7" d="M27.18,74.46a.35.35,0,0,0-.68.14,186.36,186.36,0,0,0,4.7,24.09.69.69,0,0,0,1.34-.3A185,185,0,0,0,27.18,74.46Z"/><path id="_Caminho_95" data-name="&lt;Caminho&gt;" class="cls-7" d="M33.15,78.74c1.2,8.39,1.21,16.94,2.66,25.3.08.46.84.42.83-.06-.16-8.48-1.76-16.89-2.16-25.35A.67.67,0,1,0,33.15,78.74Z"/><path id="_Caminho_96" data-name="&lt;Caminho&gt;" class="cls-7" d="M38.3,83c.17,8.2.34,16.53,1.18,24.69.06.59,1,.5,1-.08,0-8.2-.63-16.5-1.27-24.68C39.21,82.4,38.29,82.47,38.3,83Z"/><path id="_Caminho_97" data-name="&lt;Caminho&gt;" class="cls-7" d="M43.1,86.23c.63,8.65,1.12,17.33,2.11,25.94a.54.54,0,0,0,1.06-.08c-.32-8.61-1.14-17.2-1.82-25.79C44.39,85.45,43,85.37,43.1,86.23Z"/><path id="_Caminho_98" data-name="&lt;Caminho&gt;" class="cls-7" d="M49.68,91.46c-.13,8.4-.1,17,.51,25.34.05.71,1.13.82,1.15.06.23-8.39-.12-17-.63-25.34C50.67,90.88,49.7,90.79,49.68,91.46Z"/><path id="_Caminho_99" data-name="&lt;Caminho&gt;" class="cls-7" d="M55.35,96.65c-.15,8.25-.39,16.91.59,25.12.08.65,1.08.53,1.13-.09.57-8.19-.11-16.79-.66-25C56.36,96,55.36,95.94,55.35,96.65Z"/><path id="_Caminho_100" data-name="&lt;Caminho&gt;" class="cls-7" d="M60.8,102.18c1.26,8.48-.59,17.33.9,25.8.11.65,1,.52,1.11-.08,1-8.55-1.41-17.3-.67-25.84C62.22,101.12,60.65,101.16,60.8,102.18Z"/><path id="_Caminho_101" data-name="&lt;Caminho&gt;" class="cls-7" d="M66.68,110.59c.14,4.16.37,8.32.59,12.47.2,3.7,0,7.7.91,11.3a.55.55,0,0,0,1.08-.08c.46-3.82-.19-8-.43-11.81s-.47-7.88-.8-11.81C68,109.82,66.65,109.71,66.68,110.59Z"/><path id="_Caminho_102" data-name="&lt;Caminho&gt;" class="cls-7" d="M74.46,118c0-.87-1.34-.94-1.35-.07Q73,128.6,73,139.29c0,.82,1.32,1.15,1.48.27,0-.28.11-.56.16-.84a.47.47,0,0,0-.12-.43C74.49,131.51,74.5,124.74,74.46,118Z"/><path id="_Caminho_103" data-name="&lt;Caminho&gt;" class="cls-7" d="M78.22,129.91c-.45,4.37-.85,9-.14,13.37a.57.57,0,0,0,1.13-.09c.17-4.42-.08-8.79.36-13.21C79.66,129.11,78.31,129.05,78.22,129.91Z"/><path id="_Caminho_104" data-name="&lt;Caminho&gt;" class="cls-7" d="M81.87,138.37c0,2.45-.55,4.94-.38,7.38,0,.63,1.06,1,1.2.23.47-2.47.25-5,.53-7.54C83.31,137.58,81.88,137.5,81.87,138.37Z"/></g><g id="_Grupo_8" data-name="&lt;Grupo&gt;"><path id="_Caminho_105" data-name="&lt;Caminho&gt;" class="cls-8" d="M102.61,75.34C102.18,119.43,87,147.9,87,147.9v0c-.53-.76-17.52-25.46-22-67.61C60.54,37.45,81.18,1.37,81.18,1.37s.64.87,1.69,2.54C88,12,103,38.79,102.61,75.34Z"/><path id="_Caminho_106" data-name="&lt;Caminho&gt;" class="cls-9" d="M85.49,142.64c.24,1.34,1.54,5.24,1.54,5.24-.53-.76-17.52-25.46-22-67.61C60.54,37.45,81.18,1.37,81.18,1.37s.64.87.19,4C81.37,5.41,78.63,102.74,85.49,142.64Z"/><path id="_Caminho_107" data-name="&lt;Caminho&gt;" class="cls-7" d="M98.24,35C94.88,22.42,89.3,11.64,82.39.74c-.7-1.1-2.51-.14-1.79,1C87.46,12.15,92,24.93,95.11,37a149.39,149.39,0,0,1,4.71,36.81c.1,25.36-6,50.41-13.9,74.36-.63,1.91,2.33,2.78,3,.89,8.54-24.6,14.15-50.23,14.1-76.36A147.22,147.22,0,0,0,98.24,35Z"/><path id="_Caminho_108" data-name="&lt;Caminho&gt;" class="cls-7" d="M79.91.67C78,5.39,75.2,9.7,73.33,14.49q-2.65,6.82-4.61,13.9A156.92,156.92,0,0,0,63.58,57a153,153,0,0,0,7.13,60.75c3.63,11,8.31,22.3,14.78,32,1,1.45,3.28.26,2.42-1.33-6.32-11.71-12.08-23.29-15.82-36.12a151.35,151.35,0,0,1-2.44-75.67,160.31,160.31,0,0,1,4.83-16.9c1-2.95,2.16-5.86,3.32-8.76C79.05,7.84,80,4.42,81.73,1.52A1,1,0,1,0,79.91.67Z"/><path id="_Caminho_109" data-name="&lt;Caminho&gt;" class="cls-7" d="M80.8,2.15C80.32,14.59,79.63,27,79.6,39.42s.14,24.85.55,37.27,1.15,24.83,2,37.23c.81,12,1.38,24.21,3.11,36.11.17,1.21,2.22,1.05,2.16-.18-.59-12.39-2-24.77-2.78-37.16-.74-12.18-1.15-24.37-1.5-36.57-.71-24.56-1.07-49.31-.3-73.87A1,1,0,0,0,80.8,2.15Z"/><path id="_Caminho_110" data-name="&lt;Caminho&gt;" class="cls-7" d="M93,131.27a63.22,63.22,0,0,0-7.64,6.12c-.56.49.14,1.54.78,1.09a62.36,62.36,0,0,0,7.74-6C94.52,131.92,93.79,130.79,93,131.27Z"/><path id="_Caminho_111" data-name="&lt;Caminho&gt;" class="cls-7" d="M94.74,125.12c-3.38,2.95-6.51,6.23-9.8,9.3-.63.59.29,1.59.92,1,3.27-3.09,6.74-6,9.91-9.19A.75.75,0,0,0,94.74,125.12Z"/><path id="_Caminho_112" data-name="&lt;Caminho&gt;" class="cls-7" d="M95.1,119.94c-3.66,3.59-7,7.51-10.78,11-.64.6.33,1.63.92,1,3.52-3.72,7.47-7.06,11.08-10.71C97.12,120.42,95.92,119.14,95.1,119.94Z"/><path id="_Caminho_113" data-name="&lt;Caminho&gt;" class="cls-7" d="M96.63,113.58c-4.22,4.18-8.17,8.63-12.41,12.79-.62.61.32,1.62.92,1,4.1-4.29,8.5-8.3,12.63-12.57C98.51,114,97.39,112.82,96.63,113.58Z"/><path id="_Caminho_114" data-name="&lt;Caminho&gt;" class="cls-7" d="M97.62,108.73c-5.07,3.87-9.57,8.65-14.07,13.16-.61.62.29,1.6.92,1,4.64-4.42,9.69-8.48,14.18-13A.75.75,0,0,0,97.62,108.73Z"/><path id="_Caminho_115" data-name="&lt;Caminho&gt;" class="cls-7" d="M98.27,101.1c-5,5.18-9.75,10.64-14.31,16.23-.44.54.45,1.28.94.78,5-5.09,9.89-10.35,14.45-15.85C100,101.5,99,100.35,98.27,101.1Z"/><path id="_Caminho_116" data-name="&lt;Caminho&gt;" class="cls-7" d="M98.71,95c-5.37,5.57-9.69,12.13-15.1,17.64a.67.67,0,1,0,1,.86c4.6-6.2,10.39-11.5,15-17.68C100.13,95.23,99.21,94.46,98.71,95Z"/><path id="_Caminho_117" data-name="&lt;Caminho&gt;" class="cls-7" d="M100.21,86.29c-5.65,7.12-11.09,14.42-16.82,21.46-.55.67.61,1.42,1.14.73,5.49-7.24,11.3-14.25,16.88-21.43C102,86.33,100.77,85.59,100.21,86.29Z"/><path id="_Caminho_118" data-name="&lt;Caminho&gt;" class="cls-7" d="M100.69,79.85C94.16,87.21,88.34,95.14,82,102.67a.67.67,0,1,0,1,.85c6.15-7.66,12.79-14.92,18.72-22.76C102.27,80.12,101.23,79.24,100.69,79.85Z"/><path id="_Caminho_119" data-name="&lt;Caminho&gt;" class="cls-7" d="M100.55,69C94,78.06,88.47,87.8,81.78,96.72c-.51.69.68,1.47,1.15.73,5.9-9.47,13-18.17,19.08-27.53C102.61,69,101.19,68.12,100.55,69Z"/><path id="_Caminho_120" data-name="&lt;Caminho&gt;" class="cls-7" d="M100,59.62c-6.82,9.95-12.38,20.71-18.76,30.93a.68.68,0,0,0,1.14.73c6.19-10.35,13.24-20.19,19-30.81A.81.81,0,0,0,100,59.62Z"/><path id="_Caminho_121" data-name="&lt;Caminho&gt;" class="cls-7" d="M98.85,51.63q-5,7.11-9.52,14.52c-3,4.88-5.22,10.51-8.49,15.15-.55.77.83,1.52,1.21.57,2.1-5.33,6-10.5,9-15.38s5.94-9.43,9-14.06C100.66,51.62,99.41,50.84,98.85,51.63Z"/><path id="_Caminho_122" data-name="&lt;Caminho&gt;" class="cls-7" d="M98.65,43.45C92.07,52,87.24,61.85,81.14,70.72c-.5.71.69,1.47,1.14.72,5.55-9.22,12.54-17.69,17.6-27.21A.73.73,0,0,0,98.65,43.45Z"/><path id="_Caminho_123" data-name="&lt;Caminho&gt;" class="cls-7" d="M96.13,38.66C91,46.52,86.42,54.93,81,62.57c-.51.71.7,1.49,1.14.73,4.66-8.16,10.41-15.8,15.4-23.78A.81.81,0,0,0,96.13,38.66Z"/><path id="_Caminho_124" data-name="&lt;Caminho&gt;" class="cls-7" d="M95,32c-5.47,6.66-9.51,14.41-14.56,21.36-.51.7.66,1.46,1.14.73,4.67-7.13,10.49-13.59,14.75-21C96.81,32.22,95.66,31.15,95,32Z"/><path id="_Caminho_125" data-name="&lt;Caminho&gt;" class="cls-7" d="M93.55,28.77c-4.32,5.1-8.07,10.93-12.68,15.74-.67.71.47,1.67,1,.86C85.7,39.89,90.65,35,94.78,29.79,95.34,29.08,94.14,28.07,93.55,28.77Z"/><path id="_Caminho_126" data-name="&lt;Caminho&gt;" class="cls-7" d="M92,23.77c-4.15,4.91-7.5,10.5-11.69,15.36-.64.73.47,1.66,1,.85,3.66-5.26,8.24-9.9,12-15.14C93.85,24.07,92.63,23,92,23.77Z"/><path id="_Caminho_127" data-name="&lt;Caminho&gt;" class="cls-7" d="M81.38,30.44c-.85.16-.56,1.48.3,1.32S82.24,30.28,81.38,30.44Z"/><path id="_Caminho_128" data-name="&lt;Caminho&gt;" class="cls-7" d="M90.13,18.41a63.06,63.06,0,0,0-4.93,6.64c-1.28,1.83-3.39,4-3.75,6.22a.12.12,0,0,0,.17.11c2-.95,3.32-3.48,4.64-5.16a62.19,62.19,0,0,0,5-6.85C91.73,18.66,90.74,17.74,90.13,18.41Z"/><path id="_Caminho_129" data-name="&lt;Caminho&gt;" class="cls-7" d="M87.79,13.33C85,16.47,83.22,20.63,81,24.16a.67.67,0,0,0,1.14.72c2.13-3.61,5.08-7,6.63-10.95C88.92,13.42,88.17,12.91,87.79,13.33Z"/><path id="_Caminho_130" data-name="&lt;Caminho&gt;" class="cls-7" d="M86.5,10.67a10.21,10.21,0,0,0-2.36,2.66c-.38.48-.74,1-1.1,1.47a12.15,12.15,0,0,1-1.54,2.06c-.79.66.6,1.74,1,.86a19.44,19.44,0,0,1,2.63-3.21,11,11,0,0,0,2.2-3.12C87.52,10.92,87,10.38,86.5,10.67Z"/><path id="_Caminho_131" data-name="&lt;Caminho&gt;" class="cls-7" d="M84.47,8.15A8.05,8.05,0,0,0,83.18,9.7a17.67,17.67,0,0,1-1.48,1.64.67.67,0,1,0,1,.86,19,19,0,0,1,1.35-1.75A8,8,0,0,0,85.37,8.9.59.59,0,0,0,84.47,8.15Z"/></g><g id="_Grupo_9" data-name="&lt;Grupo&gt;"><path id="_Caminho_132" data-name="&lt;Caminho&gt;" class="cls-8" d="M161.15,55.4c0-.68-65,22.68-74.13,94C120,131.93,160.71,100.07,161.15,55.4Z"/><path id="_Caminho_133" data-name="&lt;Caminho&gt;" class="cls-9" d="M160.78,57.06s-70.63,82.58-75.29,92.69C94.66,118.18,98.37,110,112.2,91.31S154,57.41,160.78,57.06Z"/><path id="_Caminho_composto_4" data-name="&lt;Caminho composto&gt;" class="cls-7" d="M161.51,55c-1.68.12-5.13,2.08-6.06,2.49a116.79,116.79,0,0,0-26,16.11c-15.72,12.85-26.79,25-36.48,48.24-3.78,9.1-5.62,18.91-7.12,28.65-.09.55.42.77.84.64a1,1,0,0,0,1.25,0c18.7-12.74,39.15-24.75,53.43-42.69a95.21,95.21,0,0,0,14.44-25.64,115.08,115.08,0,0,0,5.31-18.57c.27-1.38,2.22-8.1,1.22-9.09A1,1,0,0,0,161.51,55Zm-23.2,53.46c-13.86,16.63-33.08,28-50.82,40.07,7.05-41,35.39-75.07,73.29-91.48A101.39,101.39,0,0,1,138.31,108.47Z"/><path id="_Caminho_134" data-name="&lt;Caminho&gt;" class="cls-7" d="M160.21,56.34c-26.54,29.24-51.23,60.25-75,91.78-.82,1.08,1,2.16,1.79,1.09,23.74-31.42,48.84-61.72,74.14-91.87C161.68,56.69,160.81,55.69,160.21,56.34Z"/><path id="_Caminho_135" data-name="&lt;Caminho&gt;" class="cls-7" d="M160,61.5c-.58,0-1.17.07-1.75.12s-1.66.38-2.06,0-1.08.14-1,.63a.68.68,0,0,0,1.13.44c.31-.29,1.34,0,1.74,0,.64,0,1.28,0,1.91,0C160.72,62.75,160.77,61.46,160,61.5Z"/><path id="_Caminho_136" data-name="&lt;Caminho&gt;" class="cls-7" d="M159.2,65a7.46,7.46,0,0,0-2.58-.35,24.3,24.3,0,0,1-3.18-.32c-1-.21-1.17,1.34-.24,1.32a21.84,21.84,0,0,1,3.13.2,8.07,8.07,0,0,0,2.81.12A.51.51,0,0,0,159.2,65Z"/><path id="_Caminho_137" data-name="&lt;Caminho&gt;" class="cls-7" d="M159.62,67.16c-2.91-.15-5.84.62-8.75.36-1-.09-.89,1.54.11,1.33,2.86-.57,5.85-.12,8.73-.58A.56.56,0,0,0,159.62,67.16Z"/><path id="_Caminho_138" data-name="&lt;Caminho&gt;" class="cls-7" d="M158.46,70.14c-1.66.14-3.31.3-5,.47a26.66,26.66,0,0,1-5.63.42c-1-.12-.84,1.63.12,1.33a26.87,26.87,0,0,1,5.76-.59c1.65-.14,3.31-.26,5-.42C159.51,71.27,159.23,70.08,158.46,70.14Z"/><path id="_Caminho_139" data-name="&lt;Caminho&gt;" class="cls-7" d="M157.27,74.36c-4-.71-8.19.51-12.2.18-.95-.08-.9,1.49.11,1.33,4-.63,8.26.28,12.14-.74A.39.39,0,0,0,157.27,74.36Z"/><path id="_Caminho_140" data-name="&lt;Caminho&gt;" class="cls-7" d="M156.22,78.73c-5.17-.18-10.44.43-15.6.69-.86,0-.93,1.4-.06,1.35,5.21-.24,10.57-.17,15.75-.86C157,79.82,156.88,78.75,156.22,78.73Z"/><path id="_Caminho_141" data-name="&lt;Caminho&gt;" class="cls-7" d="M155.16,82.15c-6.18.77-12.35,2.26-18.55,2.73-1,.08-.83,1.55.11,1.34,6.11-1.42,12.5-1.85,18.67-3C156.11,83.11,155.86,82.06,155.16,82.15Z"/><path id="_Caminho_142" data-name="&lt;Caminho&gt;" class="cls-7" d="M152.56,86.81c-7.59,1.12-15,3.4-22.51,4.8a.68.68,0,0,0,.29,1.32c7.43-1.89,15.09-2.91,22.44-5.07A.54.54,0,0,0,152.56,86.81Z"/><path id="_Caminho_143" data-name="&lt;Caminho&gt;" class="cls-7" d="M149.14,93.58c-8.1,1-16,3.64-24,5.07-.85.15-.55,1.53.3,1.32,7.9-2,16.18-2.82,24-5.26A.58.58,0,0,0,149.14,93.58Z"/><path id="_Caminho_144" data-name="&lt;Caminho&gt;" class="cls-7" d="M146.38,99.45A109.12,109.12,0,0,0,135,100.8c-4.36.61-9.23,2-13.63,1.88-1,0-.8,1.62.11,1.33,3.87-1.23,8.47-1.15,12.51-1.68a124.4,124.4,0,0,0,12.46-1.88C147,100.32,147,99.43,146.38,99.45Z"/><path id="_Caminho_145" data-name="&lt;Caminho&gt;" class="cls-7" d="M140.05,106.45c-7-.58-14.24.73-21.23,1.08-.87,0-.92,1.41-.07,1.35,7-.54,14.44-.14,21.36-1.61A.42.42,0,0,0,140.05,106.45Z"/><path id="_Caminho_146" data-name="&lt;Caminho&gt;" class="cls-7" d="M135.62,113.43c-7-1.72-14.87-.22-22-.68-.89-.06-.93,1.39-.07,1.35,7.18-.34,15,1.3,22.08-.29C135.77,113.77,135.82,113.48,135.62,113.43Z"/><path id="_Caminho_147" data-name="&lt;Caminho&gt;" class="cls-7" d="M128.59,119.15c-6.36-.82-12.79-.41-19.18-1.4-.85-.14-.93,1.23-.06,1.35,6.22.84,13.05,2.08,19.32,1.06C129.26,120.06,129.13,119.22,128.59,119.15Z"/><path id="_Caminho_148" data-name="&lt;Caminho&gt;" class="cls-7" d="M123.58,124.57c-5.45-.58-11.11-.61-16.45-1.93a.67.67,0,1,0-.24,1.32c5.57.75,11,2.06,16.62,2A.71.71,0,0,0,123.58,124.57Z"/><path id="_Caminho_149" data-name="&lt;Caminho&gt;" class="cls-7" d="M117,129.59c-4.21-1.81-8.92-2-13.17-3.57-.88-.33-1.26,1.18-.24,1.32,4.49.66,8.66,2.84,13.21,3.3C117.41,130.71,117.49,129.81,117,129.59Z"/><path id="_Caminho_150" data-name="&lt;Caminho&gt;" class="cls-7" d="M113.73,132.29c-4.31-1-9-1-13.18-2.21-.94-.29-1.22,1.27-.24,1.32,4.41.2,8.78,1.76,13.17,2.22A.69.69,0,0,0,113.73,132.29Z"/><path id="_Caminho_151" data-name="&lt;Caminho&gt;" class="cls-7" d="M106.52,137c-2.63-1.26-6-1.33-8.48-3-.91-.61-1.55,1.16-.4,1.24,2.87.21,5.55,2.25,8.35,2.86C106.63,138.23,107.22,137.29,106.52,137Z"/><path id="_Caminho_152" data-name="&lt;Caminho&gt;" class="cls-7" d="M100.56,140.3a20.53,20.53,0,0,0-3-1.7l-3-1.64c-.76-.41-1.49.73-.73,1.15,1.07.58,2.14,1.16,3.2,1.75a20.25,20.25,0,0,0,3,1.57C100.74,141.67,101.09,140.72,100.56,140.3Z"/><path id="_Caminho_153" data-name="&lt;Caminho&gt;" class="cls-7" d="M96.24,144.06c-1.54-.94-3.31-1.61-4.93-2.42-.77-.38-1.5.77-.72,1.15,1.67.81,3.34,1.83,5.08,2.48A.68.68,0,0,0,96.24,144.06Z"/></g></g></g><g id="Camada_3" data-name="Camada 3"><path class="cls-10" d="M76.78,169.53l.14-.27a11.85,11.85,0,0,0-5.78-1.49A10.69,10.69,0,0,0,61,174.56l1.46.54a9.14,9.14,0,0,1,8.64-5.77,10.76,10.76,0,0,1,1.49.1,13.19,13.19,0,0,1,7.53,4.28l.86-.83A17,17,0,0,0,76.78,169.53Z"/><path class="cls-10" d="M66.13,187.72a11,11,0,0,1-6.44-9.8,10.68,10.68,0,0,1,3.32-7.7l.72.75a9.68,9.68,0,0,0-1.41,1.67,9.52,9.52,0,0,0-1.59,5.28,9.75,9.75,0,0,0,5.84,8.85Z"/><path class="cls-10" d="M85.18,179.19l-.45-1.05-.16-.32c-.79,1.5-4.94,8.79-11.76,9.76a12.44,12.44,0,0,1-1.68.26,10.61,10.61,0,0,1-4.52-1l-.52,1a11.78,11.78,0,0,0,5,1.11,12.71,12.71,0,0,0,1.83-.13c6.58-.94,10.73-7,12.26-9.61Z"/><path class="cls-11" d="M86.63,184.27a25.47,25.47,0,0,1-4.39,4.66l.38.47A26.1,26.1,0,0,0,87,184.82c2.71,3.71,7.23,8.1,13.78,9l.15-1.09c-6.69-1-11.17-5.69-13.84-9.71C86.94,182.87,86.63,184.27,86.63,184.27Z"/><path class="cls-12" d="M104.11,188.78a12.83,12.83,0,0,1-2.62-.1,13.23,13.23,0,0,1-5.79-2.39l-.57.81a14.18,14.18,0,0,0,6.22,2.56,14.32,14.32,0,0,0,2,.14q.42,0,.81,0Z"/><path class="cls-11" d="M85.7,179l-.52.22-.45-1.05A24.14,24.14,0,0,0,81,172.88l-.86.83a21.89,21.89,0,0,1,3.36,4.58L85.1,181l1.35-.77Z"/><path class="cls-10" d="M103.3,187.9a11.87,11.87,0,0,1-1.68-.12c-7-1-11.16-8.15-11.92-9.57l1.09-.58c.44.82,4.42,8,11,8.93a11,11,0,0,0,1.51.11Z"/><path class="cls-13" d="M113.11,175.17a9.49,9.49,0,0,0-2.53-4.06,10.27,10.27,0,0,0-5.71-2.75l.2-1.4a11.67,11.67,0,0,1,6.49,3.13,10.9,10.9,0,0,1,2.9,4.67Z"/><path class="cls-13" d="M94.27,170.68l-.67-.75a14.85,14.85,0,0,1,7.75-3.76,14.1,14.1,0,0,1,2-.14,12.65,12.65,0,0,1,8.81,3.47l-.69.73A11.68,11.68,0,0,0,103.3,167a12.24,12.24,0,0,0-1.81.13A13.84,13.84,0,0,0,94.27,170.68Z"/><path class="cls-12" d="M89.15,180.5l-3.49-1.67.83-1.74a27.15,27.15,0,0,1,6.17-8.24l1.45-1.28,2.56,2.91-1.46,1.28a23.5,23.5,0,0,0-5.23,7Z"/><path class="cls-13" d="M59.57,182.58a11.45,11.45,0,0,1-1-4.66,11.65,11.65,0,0,1,3.65-8.49,12.69,12.69,0,0,1,2.77-2l.57,1.07a10.93,10.93,0,0,0-2.5,1.81,10.42,10.42,0,0,0-2.41,11.79Z"/><path class="cls-12" d="M63.73,171l-.73-.76A11.68,11.68,0,0,1,71.14,167a13.77,13.77,0,0,1,1.81.13,12.83,12.83,0,0,1,4.33,1.46l-.5.93a11.6,11.6,0,0,0-5.64-1.46A10.66,10.66,0,0,0,63.73,171Z"/><path class="cls-12" d="M56.5,177.92h-.65a14.37,14.37,0,0,1,4.51-10.47l.44.47A13.73,13.73,0,0,0,56.5,177.92Z"/><path class="cls-13" d="M82,166.89a16.94,16.94,0,0,0-10.88-4,15.88,15.88,0,0,0-8.71,2.55l-.47-.72a16.77,16.77,0,0,1,9.18-2.69,17.66,17.66,0,0,1,2.51.18,18.4,18.4,0,0,1,8.91,4Z"/><path class="cls-13" d="M88.07,172.48l-1.7-1.2c2.72-3.85,7.41-8.64,14.33-9.63l.3,2C94.8,164.59,90.55,169,88.07,172.48Z"/><path class="cls-10" d="M90,172.72l-1.2-.9c2.38-3.15,6.42-7.07,12.22-7.89a15.66,15.66,0,0,1,2.27-.17,15.29,15.29,0,0,1,5.62,1.06l-.55,1.4a13.79,13.79,0,0,0-5.07-.95,14.28,14.28,0,0,0-2.06.15C96,166.17,92.22,169.81,90,172.72Z"/><path class="cls-10" d="M87.59,175.17l-1.68-.68.5-1.23,0-.06c2.17-3.44,6.93-9.36,14.41-10.42a16.7,16.7,0,0,1,2.44-.18v1.82a16,16,0,0,0-2.18.15c-6.39.91-10.64,5.67-13.09,9.53Z"/><path class="cls-10" d="M87.56,173.32l-.87-1.07a25.28,25.28,0,0,0-4.8-5.19l.8-1a26.4,26.4,0,0,1,5,5.44l.83,1Z"/><path class="cls-11" d="M114.25,167.27a15.72,15.72,0,0,0-11-4.34,17.46,17.46,0,0,0-2.39.17l-.12-.85a17.66,17.66,0,0,1,2.51-.18,16.61,16.61,0,0,1,11.55,4.58Z"/><path class="cls-13" d="M73.32,191.26,73,189.07c8.77-1.26,13.14-11.48,13.19-11.58.19-.47,4.88-11.49,14.92-12.92l.31,2.2c-8.8,1.25-13.14,11.47-13.19,11.57C88.05,178.81,83.36,189.83,73.32,191.26Z"/><path class="cls-13" d="M64.1,189l1-1.65A12.2,12.2,0,0,0,73,188.87l.27,1.89a15,15,0,0,0,5.33-1.86L77,186.1a11.51,11.51,0,0,1-5.84,1.59,10.58,10.58,0,0,1-7.35-2.89,9.68,9.68,0,0,1-2.18-3.11l-2.77,1.22A12.8,12.8,0,0,0,61.69,187l-.13.15A13.41,13.41,0,0,0,64.1,189Z"/><path class="cls-13" d="M71.14,191.76a14.63,14.63,0,0,1-10.17-4l.61-.64a13.72,13.72,0,0,0,9.55,3.78,15,15,0,0,0,2.11-.15c7.24-1,11.61-7.16,13.58-10.73l.5-1.19.81.35-.52,1.24c-2,3.71-6.61,10.11-14.24,11.2A17,17,0,0,1,71.14,191.76Z"/><path class="cls-13" d="M71.14,194.14a17,17,0,0,1-11.81-4.68l1.11-1.17a15.37,15.37,0,0,0,10.69,4.24,16.89,16.89,0,0,0,2.35-.17,17.19,17.19,0,0,0,8.44-3.82l1,1.25A18.74,18.74,0,0,1,73.71,194,17.2,17.2,0,0,1,71.14,194.14Z"/><path class="cls-12" d="M73.55,192.86l-.2-1.4c6.5-.93,10.8-5.76,13.27-9.66.07-.13.74-1.29,1-1.77l1.25.66c-.28.53-1,1.77-1,1.82v0C85.19,186.69,80.59,191.85,73.55,192.86Z"/><path class="cls-10" d="M64.15,189a12.7,12.7,0,0,1-6.46-11,13,13,0,0,1,.15-2l1,.16a11,11,0,0,0-.14,1.82,11.66,11.66,0,0,0,6,10.16Z"/><path class="cls-11" d="M59.3,176.17l-1.91-.3a13.13,13.13,0,0,1,5.42-8.67,14.42,14.42,0,0,1,10.49-2.49,14.63,14.63,0,0,1,2.52.59l-.61,1.84a12.55,12.55,0,0,0-2.18-.51C66.33,165.67,60.3,169.86,59.3,176.17Z"/><path class="cls-12" d="M59.05,189.75a16.33,16.33,0,0,1-4-5.89l2.25-.89a13.86,13.86,0,0,0,3.39,5Z"/><path class="cls-10" d="M71.14,193a15.88,15.88,0,0,1-11-4.37A14.85,14.85,0,0,1,55.51,179v0l0-1.07,1.41-.05,0,1.06a13.43,13.43,0,0,0,4.15,8.69,14.45,14.45,0,0,0,10.06,4,15.07,15.07,0,0,0,2.22-.16l.2,1.4A17.87,17.87,0,0,1,71.14,193Z"/><path class="cls-12" d="M77.61,188.1l-.44-.76.39-.22c5-2.86,7.75-8.32,8.26-9.39l.19-.4.8.38-.19.4c-.53,1.11-3.42,6.78-8.63,9.77Z"/><path class="cls-13" d="M88.61,177.34a19,19,0,0,0-1-1.93l.23-.12c-2.08-3.77-6.72-10.26-14.47-11.36a15.77,15.77,0,0,0-2.27-.17v1.51a14.28,14.28,0,0,1,2.06.15,14,14,0,0,1,2.4.56l-.55,1.67C82.2,170,85.8,178.41,85.83,178.5c.2.47,5,11.69,15.23,13.15l.43-3C92.94,187.45,88.65,177.44,88.61,177.34Z"/><path class="cls-12" d="M116.85,177.92h-1.21a11.59,11.59,0,0,0-4-8.74,12.81,12.81,0,0,0-10.25-2.91l-.17-1.2a14,14,0,0,1,11.21,3.2A12.78,12.78,0,0,1,116.85,177.92Z"/><rect class="cls-12" x="69.61" y="172.85" width="3.27" height="10.15"/><rect class="cls-13" x="66.17" y="176.28" width="10.14" height="3.27"/><path class="cls-10" d="M119.85,179.4l-1.3-.12a12.39,12.39,0,0,0,.07-1.36,14.41,14.41,0,0,0-4.52-10.49l.9-.94a15.68,15.68,0,0,1,4.91,11.43C119.91,178.41,119.89,178.91,119.85,179.4Z"/><path class="cls-13" d="M115.4,180.15l-.84-.17a11.11,11.11,0,0,0,.2-2.08,10.65,10.65,0,0,0-3.34-7.74l.6-.62a11.49,11.49,0,0,1,3.6,8.36A11.29,11.29,0,0,1,115.4,180.15Z"/><path class="cls-11" d="M113.92,180.36l-2-.5a7.87,7.87,0,0,0,.24-1.94,8.66,8.66,0,0,0-8.91-8.36,10.34,10.34,0,0,0-1.46.1l-.38.06-.36-2,.46-.08a12.83,12.83,0,0,1,1.74-.12c6,0,10.93,4.66,10.93,10.38A10.07,10.07,0,0,1,113.92,180.36Z"/><path class="cls-13" d="M97.78,170l-.24-.42c-4.62,2.57-7.33,7.59-7.83,8.57l-.49,1-.52-.25-.21.47,1.84.83.82-1.84c.49-.89,4.25-7.52,10.31-8.64l-.18-1A11.48,11.48,0,0,0,97.78,170Z"/><path class="cls-10" d="M103.3,192.22a16.27,16.27,0,0,1-2.3-.16,17.38,17.38,0,0,1-9.43-4.72L92.81,186a14.92,14.92,0,0,0,10.89,4.4l0,1.81Z"/></g><g id="Camada_4" data-name="Camada 4"><g class="cls-14"><g class="cls-15"><path d="M114.3,178.59a11.56,11.56,0,0,0-16.42,0,1.17,1.17,0,1,0,1.66,1.64,9.26,9.26,0,0,1,13.11,0,1.15,1.15,0,0,0,.82.35,1.21,1.21,0,0,0,.83-.34A1.16,1.16,0,0,0,114.3,178.59Z"/><path d="M106.09,178.4a8.3,8.3,0,0,0-5.92,2.46,1.17,1.17,0,0,0,1.65,1.65,6,6,0,0,1,8.54,0,1.16,1.16,0,0,0,.83.34,1.13,1.13,0,0,0,.82-.34,1.17,1.17,0,0,0,0-1.65A8.32,8.32,0,0,0,106.09,178.4Z"/><path d="M106.09,181.69a5,5,0,0,0-3.59,1.49,1.17,1.17,0,1,0,1.65,1.65,2.73,2.73,0,0,1,3.88,0,1.17,1.17,0,1,0,1.66-1.65A5.06,5.06,0,0,0,106.09,181.69Z"/><circle cx="106.09" cy="186.76" r="1.51"/></g><g class="cls-16"><path class="cls-17" d="M114.25,178.55a11.59,11.59,0,0,0-16.42,0,1.17,1.17,0,1,0,1.65,1.65,9.23,9.23,0,0,1,13.11,0,1.17,1.17,0,1,0,1.66-1.65Z"/><path class="cls-17" d="M106,178.36a8.33,8.33,0,0,0-5.93,2.47,1.17,1.17,0,0,0,1.66,1.65,6,6,0,0,1,8.54,0,1.13,1.13,0,0,0,.82.34,1.17,1.17,0,0,0,.83-2A8.31,8.31,0,0,0,106,178.36Z"/><path class="cls-17" d="M106,181.65a5.07,5.07,0,0,0-3.6,1.5,1.17,1.17,0,0,0,1.66,1.65,2.73,2.73,0,0,1,3.88,0,1.13,1.13,0,0,0,.82.34,1.17,1.17,0,0,0,.83-2A5,5,0,0,0,106,181.65Z"/><circle class="cls-17" cx="106.04" cy="186.73" r="1.51"/></g><g class="cls-18"><path class="cls-19" d="M114.19,178.52a11.56,11.56,0,0,0-16.42,0,1.17,1.17,0,1,0,1.66,1.65,9.22,9.22,0,0,1,13.1,0,1.17,1.17,0,1,0,1.66-1.65Z"/><path class="cls-19" d="M106,178.33a8.29,8.29,0,0,0-5.92,2.47,1.17,1.17,0,1,0,1.65,1.65,6,6,0,0,1,8.54,0,1.16,1.16,0,0,0,.83.34,1.14,1.14,0,0,0,.82-.34,1.17,1.17,0,0,0,0-1.65A8.33,8.33,0,0,0,106,178.33Z"/><path class="cls-19" d="M106,181.62a5,5,0,0,0-3.59,1.5,1.17,1.17,0,0,0,1.65,1.65,2.73,2.73,0,0,1,3.88,0,1.16,1.16,0,0,0,.83.34,1.14,1.14,0,0,0,.82-.34,1.17,1.17,0,0,0,0-1.65A5,5,0,0,0,106,181.62Z"/><circle class="cls-19" cx="105.98" cy="186.69" r="1.51"/></g><g class="cls-20"><path class="cls-21" d="M114.13,178.49a11.55,11.55,0,0,0-16.41,0,1.17,1.17,0,0,0,1.65,1.65,9.23,9.23,0,0,1,13.11,0,1.17,1.17,0,1,0,1.65-1.65Z"/><path class="cls-21" d="M105.92,178.3a8.31,8.31,0,0,0-5.92,2.47,1.17,1.17,0,1,0,1.66,1.64,6,6,0,0,1,8.53,0,1.17,1.17,0,1,0,1.66-1.64A8.31,8.31,0,0,0,105.92,178.3Z"/><path class="cls-21" d="M105.92,181.59a5,5,0,0,0-3.59,1.5,1.17,1.17,0,0,0,0,1.65,1.19,1.19,0,0,0,1.66,0,2.72,2.72,0,0,1,3.87,0,1.21,1.21,0,0,0,.83.34,1.17,1.17,0,0,0,.83-2A5,5,0,0,0,105.92,181.59Z"/><circle class="cls-21" cx="105.92" cy="186.66" r="1.51"/></g><g class="cls-22"><path class="cls-23" d="M114.08,178.46a11.56,11.56,0,0,0-16.42,0,1.17,1.17,0,1,0,1.65,1.65,9.23,9.23,0,0,1,13.11,0,1.21,1.21,0,0,0,.83.34,1.13,1.13,0,0,0,.82-.34A1.17,1.17,0,0,0,114.08,178.46Z"/><path class="cls-23" d="M105.87,178.27a8.32,8.32,0,0,0-5.93,2.46,1.18,1.18,0,0,0,0,1.66,1.17,1.17,0,0,0,1.65,0,6,6,0,0,1,8.54,0,1.17,1.17,0,0,0,.82.35,1.21,1.21,0,0,0,.83-.34,1.17,1.17,0,0,0,0-1.66A8.28,8.28,0,0,0,105.87,178.27Z"/><path class="cls-23" d="M105.87,181.56a5,5,0,0,0-3.6,1.5,1.17,1.17,0,1,0,1.66,1.64,2.73,2.73,0,0,1,3.88,0,1.18,1.18,0,0,0,.83.35,1.2,1.2,0,0,0,.82-.34,1.16,1.16,0,0,0,0-1.65A5,5,0,0,0,105.87,181.56Z"/><circle class="cls-23" cx="105.87" cy="186.63" r="1.51"/></g><g class="cls-24"><path class="cls-25" d="M114,178.43a11.56,11.56,0,0,0-16.42,0,1.17,1.17,0,1,0,1.66,1.64,9.26,9.26,0,0,1,13.11,0,1.14,1.14,0,0,0,.82.35,1.21,1.21,0,0,0,.83-.34A1.16,1.16,0,0,0,114,178.43Z"/><path class="cls-25" d="M105.81,178.24a8.28,8.28,0,0,0-5.92,2.46,1.17,1.17,0,0,0,1.65,1.65,6,6,0,0,1,8.54,0,1.16,1.16,0,0,0,.83.34,1.13,1.13,0,0,0,.82-.34,1.17,1.17,0,0,0,0-1.65A8.32,8.32,0,0,0,105.81,178.24Z"/><path class="cls-25" d="M105.81,181.53a5,5,0,0,0-3.59,1.49,1.17,1.17,0,1,0,1.65,1.65,2.73,2.73,0,0,1,3.88,0,1.17,1.17,0,1,0,1.66-1.65A5.06,5.06,0,0,0,105.81,181.53Z"/><circle class="cls-25" cx="105.81" cy="186.6" r="1.51"/></g><g class="cls-26"><path class="cls-27" d="M114,178.39a11.59,11.59,0,0,0-16.42,0A1.17,1.17,0,1,0,99.2,180a9.23,9.23,0,0,1,13.11,0,1.17,1.17,0,1,0,1.66-1.65Z"/><path class="cls-27" d="M105.76,178.2a8.31,8.31,0,0,0-5.93,2.47,1.17,1.17,0,0,0,1.66,1.65,6,6,0,0,1,8.53,0,1.17,1.17,0,1,0,1.66-1.65A8.31,8.31,0,0,0,105.76,178.2Z"/><path class="cls-27" d="M105.76,181.49a5.07,5.07,0,0,0-3.6,1.5,1.17,1.17,0,0,0,1.66,1.65,2.73,2.73,0,0,1,3.88,0,1.13,1.13,0,0,0,.82.34,1.17,1.17,0,0,0,.83-2A5.06,5.06,0,0,0,105.76,181.49Z"/><circle class="cls-27" cx="105.76" cy="186.57" r="1.51"/></g><g class="cls-28"><path class="cls-29" d="M113.91,178.36a11.56,11.56,0,0,0-16.42,0A1.17,1.17,0,1,0,99.15,180a9.22,9.22,0,0,1,13.1,0,1.17,1.17,0,1,0,1.66-1.65Z"/><path class="cls-29" d="M105.7,178.17a8.29,8.29,0,0,0-5.92,2.47,1.17,1.17,0,0,0,1.65,1.65,6,6,0,0,1,8.54,0,1.17,1.17,0,0,0,1.65-1.65A8.29,8.29,0,0,0,105.7,178.17Z"/><path class="cls-29" d="M105.7,181.46a5,5,0,0,0-3.6,1.5,1.17,1.17,0,0,0,1.66,1.65,2.73,2.73,0,0,1,3.88,0,1.16,1.16,0,0,0,.83.34,1.14,1.14,0,0,0,.82-.34,1.17,1.17,0,0,0,0-1.65A5,5,0,0,0,105.7,181.46Z"/><circle class="cls-29" cx="105.7" cy="186.53" r="1.51"/></g><g class="cls-30"><path class="cls-31" d="M113.85,178.33a11.56,11.56,0,0,0-16.42,0A1.17,1.17,0,0,0,99.09,180a9.23,9.23,0,0,1,13.11,0,1.17,1.17,0,1,0,1.65-1.65Z"/><path class="cls-31" d="M105.64,178.14a8.31,8.31,0,0,0-5.92,2.47,1.17,1.17,0,1,0,1.66,1.64,6,6,0,0,1,8.53,0,1.18,1.18,0,0,0,.83.35,1.13,1.13,0,0,0,.82-.34,1.17,1.17,0,0,0,0-1.65A8.31,8.31,0,0,0,105.64,178.14Z"/><path class="cls-31" d="M105.64,181.43a5,5,0,0,0-3.59,1.5,1.17,1.17,0,0,0,0,1.65,1.18,1.18,0,0,0,1.66,0,2.74,2.74,0,0,1,3.87,0,1.17,1.17,0,1,0,1.66-1.64A5,5,0,0,0,105.64,181.43Z"/><circle class="cls-31" cx="105.64" cy="186.5" r="1.51"/></g><g class="cls-32"><path class="cls-33" d="M113.8,178.3a11.56,11.56,0,0,0-16.42,0A1.17,1.17,0,0,0,99,180a9.23,9.23,0,0,1,13.11,0,1.21,1.21,0,0,0,.83.34,1.13,1.13,0,0,0,.82-.34A1.17,1.17,0,0,0,113.8,178.3Z"/><path class="cls-33" d="M105.59,178.11a8.32,8.32,0,0,0-5.93,2.46,1.18,1.18,0,0,0,0,1.66,1.17,1.17,0,0,0,1.65,0,6,6,0,0,1,8.54,0,1.14,1.14,0,0,0,.82.35,1.21,1.21,0,0,0,.83-.34,1.17,1.17,0,0,0,0-1.66A8.28,8.28,0,0,0,105.59,178.11Z"/><path class="cls-33" d="M105.59,181.4a5,5,0,0,0-3.6,1.5,1.17,1.17,0,1,0,1.66,1.64,2.73,2.73,0,0,1,3.88,0,1.18,1.18,0,0,0,.83.35,1.2,1.2,0,0,0,.82-.34,1.16,1.16,0,0,0,0-1.65A5,5,0,0,0,105.59,181.4Z"/><circle class="cls-33" cx="105.59" cy="186.47" r="1.51"/></g><g class="cls-34"><path class="cls-35" d="M113.74,178.27a11.56,11.56,0,0,0-16.42,0A1.17,1.17,0,1,0,99,179.91a9.26,9.26,0,0,1,13.11,0,1.14,1.14,0,0,0,.82.35,1.21,1.21,0,0,0,.83-.34A1.16,1.16,0,0,0,113.74,178.27Z"/><path class="cls-35" d="M105.53,178.08a8.28,8.28,0,0,0-5.92,2.46,1.17,1.17,0,1,0,1.65,1.65,6,6,0,0,1,8.54,0,1.16,1.16,0,0,0,.83.34,1.14,1.14,0,0,0,.82-.34,1.17,1.17,0,0,0,0-1.65A8.32,8.32,0,0,0,105.53,178.08Z"/><path class="cls-35" d="M105.53,181.37a5,5,0,0,0-3.59,1.49,1.17,1.17,0,1,0,1.65,1.65,2.73,2.73,0,0,1,3.88,0,1.17,1.17,0,1,0,1.66-1.65A5.06,5.06,0,0,0,105.53,181.37Z"/><circle class="cls-35" cx="105.53" cy="186.44" r="1.51"/></g><g class="cls-36"><path class="cls-37" d="M113.69,178.23a11.59,11.59,0,0,0-16.42,0,1.17,1.17,0,1,0,1.65,1.65,9.23,9.23,0,0,1,13.11,0,1.17,1.17,0,1,0,1.66-1.65Z"/><path class="cls-37" d="M105.48,178a8.31,8.31,0,0,0-5.93,2.47,1.17,1.17,0,0,0,1.66,1.65,6,6,0,0,1,8.53,0,1.17,1.17,0,0,0,1.66-1.65A8.31,8.31,0,0,0,105.48,178Z"/><path class="cls-37" d="M105.48,181.33a5.07,5.07,0,0,0-3.6,1.5,1.17,1.17,0,0,0,1.66,1.65,2.73,2.73,0,0,1,3.88,0,1.13,1.13,0,0,0,.82.34,1.17,1.17,0,0,0,.83-2A5.06,5.06,0,0,0,105.48,181.33Z"/><circle class="cls-37" cx="105.48" cy="186.41" r="1.51"/></g><g class="cls-38"><path class="cls-39" d="M113.63,178.2a11.56,11.56,0,0,0-16.42,0,1.17,1.17,0,0,0,1.66,1.65,9.22,9.22,0,0,1,13.1,0,1.17,1.17,0,0,0,1.66-1.65Z"/><path class="cls-39" d="M105.42,178a8.29,8.29,0,0,0-5.92,2.47,1.17,1.17,0,1,0,1.65,1.65,6,6,0,0,1,8.54,0,1.17,1.17,0,1,0,1.65-1.65A8.29,8.29,0,0,0,105.42,178Z"/><path class="cls-39" d="M105.42,181.3a5,5,0,0,0-3.6,1.5,1.17,1.17,0,0,0,1.66,1.65,2.73,2.73,0,0,1,3.88,0,1.16,1.16,0,0,0,.83.34,1.14,1.14,0,0,0,.82-.34,1.17,1.17,0,0,0,0-1.65A5,5,0,0,0,105.42,181.3Z"/><circle class="cls-39" cx="105.42" cy="186.37" r="1.51"/></g><g class="cls-40"><path class="cls-41" d="M113.57,178.17a11.56,11.56,0,0,0-16.42,0,1.17,1.17,0,0,0,1.66,1.65,9.23,9.23,0,0,1,13.11,0,1.17,1.17,0,1,0,1.65-1.65Z"/><path class="cls-41" d="M105.36,178a8.31,8.31,0,0,0-5.92,2.47,1.17,1.17,0,0,0,0,1.65,1.18,1.18,0,0,0,1.66,0,6,6,0,0,1,8.53,0,1.18,1.18,0,0,0,.83.35,1.13,1.13,0,0,0,.82-.34,1.17,1.17,0,0,0,0-1.65A8.31,8.31,0,0,0,105.36,178Z"/><path class="cls-41" d="M105.36,181.27a5,5,0,0,0-3.59,1.5,1.17,1.17,0,0,0,0,1.65,1.18,1.18,0,0,0,1.66,0,2.74,2.74,0,0,1,3.87,0,1.18,1.18,0,0,0,.83.35,1.13,1.13,0,0,0,.82-.34,1.17,1.17,0,0,0,0-1.65A5,5,0,0,0,105.36,181.27Z"/><circle class="cls-41" cx="105.36" cy="186.34" r="1.51"/></g><g class="cls-42"><path class="cls-43" d="M113.52,178.14a11.56,11.56,0,0,0-16.42,0,1.16,1.16,0,0,0,0,1.65,1.18,1.18,0,0,0,1.65,0,9.23,9.23,0,0,1,13.11,0,1.21,1.21,0,0,0,.83.34,1.13,1.13,0,0,0,.82-.34A1.17,1.17,0,0,0,113.52,178.14Z"/><path class="cls-43" d="M105.31,178a8.32,8.32,0,0,0-5.93,2.46,1.18,1.18,0,0,0,0,1.66,1.17,1.17,0,0,0,1.65,0,6,6,0,0,1,8.54,0,1.14,1.14,0,0,0,.82.35,1.21,1.21,0,0,0,.83-.34,1.17,1.17,0,0,0,0-1.66A8.28,8.28,0,0,0,105.31,178Z"/><path class="cls-43" d="M105.31,181.24a5,5,0,0,0-3.6,1.5,1.17,1.17,0,0,0,1.66,1.64,2.73,2.73,0,0,1,3.88,0,1.18,1.18,0,0,0,.83.35,1.2,1.2,0,0,0,.82-.34,1.16,1.16,0,0,0,0-1.65A5,5,0,0,0,105.31,181.24Z"/><circle class="cls-43" cx="105.31" cy="186.31" r="1.51"/></g><g class="cls-44"><path class="cls-45" d="M113.46,178.1a11.59,11.59,0,0,0-16.42,0,1.18,1.18,0,0,0,0,1.66,1.17,1.17,0,0,0,1.65,0,9.26,9.26,0,0,1,13.11,0,1.14,1.14,0,0,0,.82.35,1.21,1.21,0,0,0,.83-.34A1.17,1.17,0,0,0,113.46,178.1Z"/><path class="cls-45" d="M105.25,177.92a8.28,8.28,0,0,0-5.92,2.46A1.17,1.17,0,0,0,101,182a6,6,0,0,1,8.54,0,1.16,1.16,0,0,0,.83.34,1.14,1.14,0,0,0,.82-.34,1.17,1.17,0,0,0,0-1.65A8.32,8.32,0,0,0,105.25,177.92Z"/><path class="cls-45" d="M105.25,181.21a5,5,0,0,0-3.59,1.49,1.17,1.17,0,1,0,1.65,1.65,2.73,2.73,0,0,1,3.88,0,1.17,1.17,0,1,0,1.66-1.65A5.06,5.06,0,0,0,105.25,181.21Z"/><circle class="cls-45" cx="105.25" cy="186.28" r="1.51"/></g><g class="cls-46"><path class="cls-47" d="M113.41,178.07a11.59,11.59,0,0,0-16.42,0,1.17,1.17,0,0,0,1.65,1.65,9.23,9.23,0,0,1,13.11,0,1.18,1.18,0,0,0,.83.35,1.15,1.15,0,0,0,.82-.35A1.17,1.17,0,0,0,113.41,178.07Z"/><path class="cls-47" d="M105.2,177.88a8.31,8.31,0,0,0-5.93,2.47,1.17,1.17,0,0,0,1.66,1.65,6,6,0,0,1,8.53,0,1.17,1.17,0,1,0,1.66-1.65A8.31,8.31,0,0,0,105.2,177.88Z"/><path class="cls-47" d="M105.2,181.17a5.07,5.07,0,0,0-3.6,1.5,1.17,1.17,0,0,0,1.66,1.65,2.72,2.72,0,0,1,3.87,0,1.17,1.17,0,1,0,1.66-1.65A5.06,5.06,0,0,0,105.2,181.17Z"/><circle class="cls-47" cx="105.2" cy="186.25" r="1.51"/></g><g class="cls-48"><path class="cls-49" d="M113.35,178a11.56,11.56,0,0,0-16.42,0,1.17,1.17,0,1,0,1.66,1.65,9.22,9.22,0,0,1,13.1,0,1.18,1.18,0,0,0,1.66,0A1.18,1.18,0,0,0,113.35,178Z"/><path class="cls-49" d="M105.14,177.85a8.29,8.29,0,0,0-5.92,2.47,1.17,1.17,0,0,0,1.65,1.65,6,6,0,0,1,8.54,0,1.17,1.17,0,0,0,1.65-1.65A8.29,8.29,0,0,0,105.14,177.85Z"/><path class="cls-49" d="M105.14,181.14a5,5,0,0,0-3.6,1.5,1.17,1.17,0,0,0,1.66,1.65,2.73,2.73,0,0,1,3.88,0,1.17,1.17,0,0,0,1.66-1.65A5,5,0,0,0,105.14,181.14Z"/><circle class="cls-49" cx="105.14" cy="186.21" r="1.51"/></g><g class="cls-50"><path class="cls-51" d="M113.29,178a11.56,11.56,0,0,0-16.42,0,1.17,1.17,0,0,0,1.66,1.65,9.23,9.23,0,0,1,13.11,0,1.17,1.17,0,0,0,1.65-1.65Z"/><path class="cls-51" d="M105.08,177.82a8.31,8.31,0,0,0-5.92,2.47,1.17,1.17,0,0,0,0,1.65,1.18,1.18,0,0,0,1.66,0,6,6,0,0,1,8.53,0,1.18,1.18,0,0,0,.83.35,1.13,1.13,0,0,0,.82-.34,1.17,1.17,0,0,0,0-1.65A8.31,8.31,0,0,0,105.08,177.82Z"/><path class="cls-51" d="M105.08,181.11a5,5,0,0,0-3.59,1.5,1.17,1.17,0,0,0,0,1.65,1.18,1.18,0,0,0,1.66,0,2.74,2.74,0,0,1,3.87,0,1.18,1.18,0,0,0,.83.35,1.13,1.13,0,0,0,.82-.34,1.17,1.17,0,0,0,0-1.65A5,5,0,0,0,105.08,181.11Z"/><circle class="cls-51" cx="105.08" cy="186.18" r="1.51"/></g><g class="cls-52"><path class="cls-53" d="M113.24,178a11.56,11.56,0,0,0-16.42,0,1.16,1.16,0,0,0,0,1.65,1.18,1.18,0,0,0,1.65,0,9.23,9.23,0,0,1,13.11,0,1.21,1.21,0,0,0,.83.34,1.13,1.13,0,0,0,.82-.34A1.17,1.17,0,0,0,113.24,178Z"/><path class="cls-53" d="M105,177.79a8.32,8.32,0,0,0-5.93,2.46,1.18,1.18,0,0,0,0,1.66,1.17,1.17,0,0,0,1.65,0,6,6,0,0,1,8.54,0,1.14,1.14,0,0,0,.82.35,1.21,1.21,0,0,0,.83-.34,1.17,1.17,0,0,0,0-1.66A8.28,8.28,0,0,0,105,177.79Z"/><path class="cls-53" d="M105,181.08a5,5,0,0,0-3.6,1.5,1.17,1.17,0,0,0,1.66,1.64,2.73,2.73,0,0,1,3.88,0,1.14,1.14,0,0,0,.82.35,1.21,1.21,0,0,0,.83-.34,1.16,1.16,0,0,0,0-1.65A5,5,0,0,0,105,181.08Z"/><circle class="cls-53" cx="105.03" cy="186.15" r="1.51"/></g><g class="cls-54"><path class="cls-55" d="M113.18,177.94a11.59,11.59,0,0,0-16.42,0,1.18,1.18,0,0,0,0,1.66,1.17,1.17,0,0,0,1.65,0,9.23,9.23,0,0,1,13.11,0,1.14,1.14,0,0,0,.82.35,1.21,1.21,0,0,0,.83-.34A1.18,1.18,0,0,0,113.18,177.94Z"/><path class="cls-55" d="M105,177.76a8.28,8.28,0,0,0-5.92,2.46,1.17,1.17,0,1,0,1.65,1.65,6,6,0,0,1,8.54,0,1.16,1.16,0,0,0,.83.34,1.14,1.14,0,0,0,.82-.34,1.17,1.17,0,0,0,0-1.65A8.32,8.32,0,0,0,105,177.76Z"/><path class="cls-55" d="M105,181.05a5,5,0,0,0-3.59,1.49,1.17,1.17,0,1,0,1.65,1.65,2.73,2.73,0,0,1,3.88,0,1.17,1.17,0,1,0,1.66-1.65A5.06,5.06,0,0,0,105,181.05Z"/><circle class="cls-55" cx="104.97" cy="186.12" r="1.51"/></g><g class="cls-56"><path class="cls-57" d="M113.13,177.91a11.59,11.59,0,0,0-16.42,0,1.17,1.17,0,1,0,1.65,1.65,9.23,9.23,0,0,1,13.11,0,1.18,1.18,0,0,0,.83.35,1.15,1.15,0,0,0,.82-.35A1.17,1.17,0,0,0,113.13,177.91Z"/><path class="cls-57" d="M104.92,177.72A8.31,8.31,0,0,0,99,180.19a1.17,1.17,0,0,0,1.66,1.65,6,6,0,0,1,8.53,0,1.17,1.17,0,0,0,1.66-1.65A8.31,8.31,0,0,0,104.92,177.72Z"/><path class="cls-57" d="M104.92,181a5.07,5.07,0,0,0-3.6,1.5,1.17,1.17,0,0,0,1.66,1.65,2.72,2.72,0,0,1,3.87,0,1.17,1.17,0,0,0,1.66-1.65A5.06,5.06,0,0,0,104.92,181Z"/><circle class="cls-57" cx="104.92" cy="186.09" r="1.51"/></g><g class="cls-58"><path class="cls-59" d="M113.07,177.88a11.56,11.56,0,0,0-16.42,0,1.17,1.17,0,0,0,1.66,1.65,9.22,9.22,0,0,1,13.1,0,1.18,1.18,0,0,0,1.66,0A1.18,1.18,0,0,0,113.07,177.88Z"/><path class="cls-59" d="M104.86,177.69a8.29,8.29,0,0,0-5.92,2.47,1.17,1.17,0,1,0,1.65,1.65,6,6,0,0,1,8.54,0,1.17,1.17,0,1,0,1.65-1.65A8.29,8.29,0,0,0,104.86,177.69Z"/><path class="cls-59" d="M104.86,181a5,5,0,0,0-3.6,1.5,1.17,1.17,0,0,0,1.66,1.65,2.73,2.73,0,0,1,3.88,0,1.17,1.17,0,0,0,1.66-1.65A5,5,0,0,0,104.86,181Z"/><circle class="cls-59" cx="104.86" cy="186.05" r="1.51"/></g><g class="cls-60"><path class="cls-61" d="M113,177.85a11.56,11.56,0,0,0-16.42,0,1.17,1.17,0,0,0,1.66,1.65,9.23,9.23,0,0,1,13.11,0,1.17,1.17,0,1,0,1.65-1.65Z"/><path class="cls-61" d="M104.8,177.66a8.31,8.31,0,0,0-5.92,2.47,1.17,1.17,0,0,0,0,1.65,1.18,1.18,0,0,0,1.66,0,6,6,0,0,1,8.53,0,1.18,1.18,0,0,0,.83.35,1.13,1.13,0,0,0,.82-.34,1.17,1.17,0,0,0,0-1.65A8.31,8.31,0,0,0,104.8,177.66Z"/><path class="cls-61" d="M104.8,181a5,5,0,0,0-3.59,1.5,1.16,1.16,0,1,0,1.65,1.64,2.75,2.75,0,0,1,3.88,0,1.18,1.18,0,0,0,.83.35,1.13,1.13,0,0,0,.82-.34,1.17,1.17,0,0,0,0-1.65A5,5,0,0,0,104.8,181Z"/><circle class="cls-61" cx="104.8" cy="186.02" r="1.51"/></g><g class="cls-62"><path class="cls-63" d="M113,177.82a11.56,11.56,0,0,0-16.42,0,1.16,1.16,0,0,0,0,1.65,1.18,1.18,0,0,0,1.65,0,9.23,9.23,0,0,1,13.11,0,1.21,1.21,0,0,0,.83.34,1.13,1.13,0,0,0,.82-.34A1.17,1.17,0,0,0,113,177.82Z"/><path class="cls-63" d="M104.75,177.63a8.32,8.32,0,0,0-5.93,2.46,1.18,1.18,0,0,0,0,1.66,1.17,1.17,0,0,0,1.65,0,6,6,0,0,1,8.54,0,1.14,1.14,0,0,0,.82.35,1.21,1.21,0,0,0,.83-.34,1.17,1.17,0,0,0,0-1.66A8.28,8.28,0,0,0,104.75,177.63Z"/><path class="cls-63" d="M104.75,180.92a5,5,0,0,0-3.6,1.5,1.17,1.17,0,0,0,1.66,1.64,2.73,2.73,0,0,1,3.88,0,1.14,1.14,0,0,0,.82.35,1.21,1.21,0,0,0,.83-.34,1.16,1.16,0,0,0,0-1.65A5,5,0,0,0,104.75,180.92Z"/><circle class="cls-63" cx="104.75" cy="185.99" r="1.51"/></g><g class="cls-64"><path class="cls-65" d="M112.9,177.78a11.59,11.59,0,0,0-16.42,0,1.18,1.18,0,0,0,0,1.66,1.17,1.17,0,0,0,1.65,0,9.23,9.23,0,0,1,13.11,0,1.14,1.14,0,0,0,.82.35,1.21,1.21,0,0,0,.83-.34A1.18,1.18,0,0,0,112.9,177.78Z"/><path class="cls-65" d="M104.69,177.6a8.28,8.28,0,0,0-5.92,2.46,1.17,1.17,0,0,0,1.65,1.65,6,6,0,0,1,8.54,0,1.16,1.16,0,0,0,.83.34,1.14,1.14,0,0,0,.82-.34,1.17,1.17,0,0,0,0-1.65A8.32,8.32,0,0,0,104.69,177.6Z"/><path class="cls-65" d="M104.69,180.89a5,5,0,0,0-3.59,1.49,1.17,1.17,0,1,0,1.65,1.65,2.73,2.73,0,0,1,3.88,0,1.17,1.17,0,1,0,1.66-1.65A5.06,5.06,0,0,0,104.69,180.89Z"/><circle class="cls-65" cx="104.69" cy="185.96" r="1.51"/></g><g class="cls-66"><path class="cls-67" d="M112.84,177.75a11.58,11.58,0,0,0-16.41,0,1.17,1.17,0,0,0,1.65,1.65,9.23,9.23,0,0,1,13.11,0,1.18,1.18,0,0,0,.83.35,1.18,1.18,0,0,0,.82-2Z"/><path class="cls-67" d="M104.64,177.56A8.31,8.31,0,0,0,98.71,180a1.17,1.17,0,1,0,1.66,1.65,6,6,0,0,1,8.53,0,1.18,1.18,0,0,0,1.66,0,1.18,1.18,0,0,0,0-1.65A8.31,8.31,0,0,0,104.64,177.56Z"/><path class="cls-67" d="M104.64,180.85a5.07,5.07,0,0,0-3.6,1.5A1.17,1.17,0,1,0,102.7,184a2.72,2.72,0,0,1,3.87,0,1.17,1.17,0,1,0,1.66-1.65A5.06,5.06,0,0,0,104.64,180.85Z"/><circle class="cls-67" cx="104.64" cy="185.93" r="1.51"/></g><g class="cls-68"><path class="cls-69" d="M112.79,177.72a11.56,11.56,0,0,0-16.42,0A1.17,1.17,0,1,0,98,179.37a9.22,9.22,0,0,1,13.1,0,1.18,1.18,0,0,0,1.66,0A1.18,1.18,0,0,0,112.79,177.72Z"/><path class="cls-69" d="M104.58,177.53A8.29,8.29,0,0,0,98.66,180a1.17,1.17,0,0,0,1.65,1.65,6,6,0,0,1,8.54,0A1.17,1.17,0,0,0,110.5,180,8.29,8.29,0,0,0,104.58,177.53Z"/><path class="cls-69" d="M104.58,180.82a5,5,0,0,0-3.6,1.5,1.17,1.17,0,0,0,1.66,1.65,2.73,2.73,0,0,1,3.88,0,1.17,1.17,0,0,0,1.65-1.65A5,5,0,0,0,104.58,180.82Z"/><circle class="cls-69" cx="104.58" cy="185.89" r="1.51"/></g><g class="cls-70"><path class="cls-71" d="M112.73,177.69a11.56,11.56,0,0,0-16.42,0A1.17,1.17,0,0,0,98,179.34a9.23,9.23,0,0,1,13.11,0,1.17,1.17,0,0,0,1.65-1.65Z"/><path class="cls-71" d="M104.52,177.5A8.31,8.31,0,0,0,98.6,180a1.16,1.16,0,1,0,1.65,1.64,6,6,0,0,1,8.54,0,1.17,1.17,0,0,0,1.66-1.64A8.33,8.33,0,0,0,104.52,177.5Z"/><path class="cls-71" d="M104.52,180.79a5,5,0,0,0-3.59,1.5,1.16,1.16,0,1,0,1.65,1.64,2.75,2.75,0,0,1,3.88,0,1.18,1.18,0,0,0,.83.35,1.13,1.13,0,0,0,.82-.34,1.17,1.17,0,0,0,0-1.65A5,5,0,0,0,104.52,180.79Z"/><circle class="cls-71" cx="104.52" cy="185.86" r="1.51"/></g><g class="cls-72"><path class="cls-73" d="M112.68,177.66a11.56,11.56,0,0,0-16.42,0,1.16,1.16,0,0,0,0,1.65,1.18,1.18,0,0,0,1.65,0,9.23,9.23,0,0,1,13.11,0,1.21,1.21,0,0,0,.83.34,1.13,1.13,0,0,0,.82-.34A1.17,1.17,0,0,0,112.68,177.66Z"/><path class="cls-73" d="M104.47,177.47a8.32,8.32,0,0,0-5.93,2.46,1.18,1.18,0,0,0,0,1.66,1.17,1.17,0,0,0,1.65,0,6,6,0,0,1,8.54,0,1.14,1.14,0,0,0,.82.35,1.21,1.21,0,0,0,.83-.34,1.18,1.18,0,0,0,0-1.66A8.3,8.3,0,0,0,104.47,177.47Z"/><path class="cls-73" d="M104.47,180.76a5.06,5.06,0,0,0-3.6,1.49,1.18,1.18,0,0,0,0,1.66,1.17,1.17,0,0,0,1.65,0,2.73,2.73,0,0,1,3.88,0,1.14,1.14,0,0,0,.82.35,1.21,1.21,0,0,0,.83-.34,1.17,1.17,0,0,0,0-1.66A5,5,0,0,0,104.47,180.76Z"/><circle class="cls-73" cx="104.47" cy="185.83" r="1.51"/></g><g class="cls-74"><path class="cls-75" d="M112.62,177.62a11.59,11.59,0,0,0-16.42,0,1.18,1.18,0,0,0,0,1.66,1.17,1.17,0,0,0,1.65,0,9.23,9.23,0,0,1,13.11,0,1.14,1.14,0,0,0,.82.35,1.21,1.21,0,0,0,.83-.34A1.18,1.18,0,0,0,112.62,177.62Z"/><path class="cls-75" d="M104.41,177.44a8.28,8.28,0,0,0-5.92,2.46,1.17,1.17,0,1,0,1.65,1.65,6,6,0,0,1,8.54,0,1.16,1.16,0,0,0,.83.34,1.14,1.14,0,0,0,.82-.34,1.17,1.17,0,0,0,0-1.65A8.32,8.32,0,0,0,104.41,177.44Z"/><path class="cls-75" d="M104.41,180.73a5,5,0,0,0-3.59,1.49,1.17,1.17,0,1,0,1.65,1.65,2.73,2.73,0,0,1,3.88,0,1.18,1.18,0,0,0,1.65,0,1.18,1.18,0,0,0,0-1.66A5.06,5.06,0,0,0,104.41,180.73Z"/><circle class="cls-75" cx="104.41" cy="185.8" r="1.51"/></g><g class="cls-76"><path class="cls-77" d="M112.56,177.59a11.58,11.58,0,0,0-16.41,0,1.17,1.17,0,1,0,1.65,1.65,9.23,9.23,0,0,1,13.11,0,1.17,1.17,0,1,0,1.65-1.65Z"/><path class="cls-77" d="M104.36,177.4a8.31,8.31,0,0,0-5.93,2.47,1.17,1.17,0,0,0,1.66,1.65,6,6,0,0,1,8.53,0,1.18,1.18,0,0,0,1.66,0,1.18,1.18,0,0,0,0-1.65A8.31,8.31,0,0,0,104.36,177.4Z"/><path class="cls-77" d="M104.36,180.69a5.07,5.07,0,0,0-3.6,1.5,1.17,1.17,0,0,0,1.66,1.65,2.72,2.72,0,0,1,3.87,0,1.17,1.17,0,0,0,1.66-1.65A5.06,5.06,0,0,0,104.36,180.69Z"/><circle class="cls-77" cx="104.36" cy="185.77" r="1.51"/></g><g class="cls-78"><path class="cls-79" d="M112.51,177.56a11.56,11.56,0,0,0-16.42,0,1.17,1.17,0,0,0,1.66,1.65,9.22,9.22,0,0,1,13.1,0,1.18,1.18,0,0,0,1.66,0A1.18,1.18,0,0,0,112.51,177.56Z"/><path class="cls-79" d="M104.3,177.37a8.33,8.33,0,0,0-5.93,2.47,1.17,1.17,0,0,0,1.66,1.65,6,6,0,0,1,8.54,0,1.17,1.17,0,1,0,1.65-1.65A8.29,8.29,0,0,0,104.3,177.37Z"/><path class="cls-79" d="M104.3,180.66a5,5,0,0,0-3.6,1.5,1.17,1.17,0,0,0,1.66,1.65,2.73,2.73,0,0,1,3.88,0,1.17,1.17,0,1,0,1.65-1.65A5,5,0,0,0,104.3,180.66Z"/><circle class="cls-79" cx="104.3" cy="185.73" r="1.51"/></g><g class="cls-80"><path class="cls-81" d="M112.45,177.53a11.56,11.56,0,0,0-16.42,0,1.17,1.17,0,0,0,1.66,1.65,9.23,9.23,0,0,1,13.11,0,1.14,1.14,0,0,0,.82.34,1.17,1.17,0,0,0,.83-2Z"/><path class="cls-81" d="M104.24,177.34a8.31,8.31,0,0,0-5.92,2.47,1.16,1.16,0,1,0,1.65,1.64,6,6,0,0,1,8.54,0,1.17,1.17,0,0,0,1.66-1.64A8.33,8.33,0,0,0,104.24,177.34Z"/><path class="cls-81" d="M104.24,180.63a5,5,0,0,0-3.59,1.5,1.16,1.16,0,1,0,1.65,1.64,2.75,2.75,0,0,1,3.88,0,1.18,1.18,0,0,0,.83.35,1.13,1.13,0,0,0,.82-.34,1.17,1.17,0,0,0,0-1.65A5,5,0,0,0,104.24,180.63Z"/><circle class="cls-81" cx="104.24" cy="185.7" r="1.51"/></g><g class="cls-82"><path class="cls-83" d="M112.4,177.5a11.56,11.56,0,0,0-16.42,0,1.16,1.16,0,1,0,1.65,1.64,9.26,9.26,0,0,1,13.11,0,1.18,1.18,0,0,0,.83.35,1.14,1.14,0,0,0,.82-.34A1.17,1.17,0,0,0,112.4,177.5Z"/><path class="cls-83" d="M104.19,177.31a8.32,8.32,0,0,0-5.93,2.46,1.18,1.18,0,0,0,0,1.66,1.17,1.17,0,0,0,1.65,0,6,6,0,0,1,8.54,0,1.14,1.14,0,0,0,.82.35,1.21,1.21,0,0,0,.83-.34,1.18,1.18,0,0,0,0-1.66A8.3,8.3,0,0,0,104.19,177.31Z"/><path class="cls-83" d="M104.19,180.6a5.06,5.06,0,0,0-3.6,1.49,1.18,1.18,0,0,0,0,1.66,1.17,1.17,0,0,0,1.65,0,2.73,2.73,0,0,1,3.88,0,1.14,1.14,0,0,0,.82.35,1.21,1.21,0,0,0,.83-.34,1.17,1.17,0,0,0,0-1.66A5,5,0,0,0,104.19,180.6Z"/><circle class="cls-83" cx="104.19" cy="185.67" r="1.51"/></g><g class="cls-84"><path class="cls-85" d="M112.34,177.46a11.59,11.59,0,0,0-16.42,0,1.17,1.17,0,1,0,1.66,1.65,9.22,9.22,0,0,1,13.1,0,1.18,1.18,0,0,0,.83.35,1.21,1.21,0,0,0,.83-.34A1.18,1.18,0,0,0,112.34,177.46Z"/><path class="cls-85" d="M104.13,177.28a8.28,8.28,0,0,0-5.92,2.46,1.17,1.17,0,0,0,1.65,1.65,6,6,0,0,1,8.54,0,1.16,1.16,0,0,0,.83.34,1.14,1.14,0,0,0,.82-.34,1.17,1.17,0,0,0,0-1.65A8.32,8.32,0,0,0,104.13,177.28Z"/><path class="cls-85" d="M104.13,180.57a5,5,0,0,0-3.59,1.49,1.17,1.17,0,0,0,1.65,1.65,2.73,2.73,0,0,1,3.88,0,1.16,1.16,0,0,0,.83.34,1.14,1.14,0,0,0,.82-.34,1.17,1.17,0,0,0,0-1.65A5.06,5.06,0,0,0,104.13,180.57Z"/><circle class="cls-85" cx="104.13" cy="185.64" r="1.51"/></g><g class="cls-86"><path class="cls-87" d="M112.28,177.43a11.58,11.58,0,0,0-16.41,0,1.17,1.17,0,0,0,1.65,1.65,9.23,9.23,0,0,1,13.11,0,1.17,1.17,0,0,0,1.65-1.65Z"/><path class="cls-87" d="M104.07,177.24a8.31,8.31,0,0,0-5.92,2.47,1.17,1.17,0,1,0,1.66,1.65,6,6,0,0,1,8.53,0,1.18,1.18,0,0,0,1.66,0,1.18,1.18,0,0,0,0-1.65A8.31,8.31,0,0,0,104.07,177.24Z"/><path class="cls-87" d="M104.07,180.53a5.06,5.06,0,0,0-3.59,1.5,1.17,1.17,0,1,0,1.66,1.65,2.72,2.72,0,0,1,3.87,0,1.17,1.17,0,1,0,1.66-1.65A5.07,5.07,0,0,0,104.07,180.53Z"/><circle class="cls-87" cx="104.07" cy="185.61" r="1.51"/></g><g class="cls-88"><path class="cls-89" d="M112.23,177.4a11.56,11.56,0,0,0-16.42,0,1.17,1.17,0,1,0,1.65,1.65,9.23,9.23,0,0,1,13.11,0,1.16,1.16,0,0,0,.83.34,1.13,1.13,0,0,0,.82-.34A1.17,1.17,0,0,0,112.23,177.4Z"/><path class="cls-89" d="M104,177.21a8.33,8.33,0,0,0-5.93,2.47,1.17,1.17,0,0,0,1.66,1.65,6,6,0,0,1,8.54,0,1.17,1.17,0,0,0,1.65-1.65A8.29,8.29,0,0,0,104,177.21Z"/><path class="cls-89" d="M104,180.5a5,5,0,0,0-3.6,1.5,1.17,1.17,0,0,0,1.66,1.65,2.73,2.73,0,0,1,3.88,0,1.17,1.17,0,0,0,1.65-1.65A5,5,0,0,0,104,180.5Z"/><circle class="cls-89" cx="104.02" cy="185.57" r="1.51"/></g><g class="cls-90"><path class="cls-91" d="M112.17,177.37a11.56,11.56,0,0,0-16.42,0A1.17,1.17,0,0,0,97.41,179a9.23,9.23,0,0,1,13.11,0,1.13,1.13,0,0,0,.82.34,1.17,1.17,0,0,0,.83-2Z"/><path class="cls-91" d="M104,177.18A8.29,8.29,0,0,0,98,179.65a1.16,1.16,0,1,0,1.65,1.64,6,6,0,0,1,8.54,0,1.17,1.17,0,0,0,1.66-1.64A8.33,8.33,0,0,0,104,177.18Z"/><path class="cls-91" d="M104,180.47a5,5,0,0,0-3.59,1.5,1.16,1.16,0,1,0,1.65,1.64,2.75,2.75,0,0,1,3.88,0,1.18,1.18,0,0,0,.83.35,1.13,1.13,0,0,0,.82-.34,1.17,1.17,0,0,0,0-1.65A5,5,0,0,0,104,180.47Z"/><circle class="cls-91" cx="103.96" cy="185.54" r="1.51"/></g><g class="cls-92"><path class="cls-93" d="M112.12,177.34a11.56,11.56,0,0,0-16.42,0A1.16,1.16,0,1,0,97.35,179a9.26,9.26,0,0,1,13.11,0,1.18,1.18,0,0,0,.83.35,1.14,1.14,0,0,0,.82-.34A1.17,1.17,0,0,0,112.12,177.34Z"/><path class="cls-93" d="M103.91,177.15A8.3,8.3,0,0,0,98,179.61a1.18,1.18,0,0,0,0,1.66,1.17,1.17,0,0,0,1.65,0,6,6,0,0,1,8.53,0,1.18,1.18,0,0,0,.83.35,1.21,1.21,0,0,0,.83-.34,1.18,1.18,0,0,0,0-1.66A8.3,8.3,0,0,0,103.91,177.15Z"/><path class="cls-93" d="M103.91,180.44a5.06,5.06,0,0,0-3.6,1.49,1.18,1.18,0,0,0,0,1.66,1.17,1.17,0,0,0,1.65,0,2.73,2.73,0,0,1,3.88,0,1.14,1.14,0,0,0,.82.35,1.21,1.21,0,0,0,.83-.34,1.18,1.18,0,0,0,0-1.66A5,5,0,0,0,103.91,180.44Z"/><circle class="cls-93" cx="103.91" cy="185.51" r="1.51"/></g><g class="cls-94"><path class="cls-95" d="M112.06,177.3a11.59,11.59,0,0,0-16.42,0A1.17,1.17,0,1,0,97.3,179a9.22,9.22,0,0,1,13.1,0,1.18,1.18,0,0,0,.83.35,1.21,1.21,0,0,0,.83-.34A1.18,1.18,0,0,0,112.06,177.3Z"/><path class="cls-95" d="M103.85,177.12a8.28,8.28,0,0,0-5.92,2.46,1.17,1.17,0,1,0,1.65,1.65,6,6,0,0,1,8.54,0,1.17,1.17,0,0,0,1.65-1.65A8.28,8.28,0,0,0,103.85,177.12Z"/><path class="cls-95" d="M103.85,180.41a5,5,0,0,0-3.59,1.49,1.17,1.17,0,1,0,1.65,1.65,2.73,2.73,0,0,1,3.88,0,1.16,1.16,0,0,0,.83.34,1.14,1.14,0,0,0,.82-.34,1.17,1.17,0,0,0,0-1.65A5.06,5.06,0,0,0,103.85,180.41Z"/><circle class="cls-95" cx="103.85" cy="185.48" r="1.51"/></g><g class="cls-96"><path class="cls-97" d="M112,177.27a11.59,11.59,0,0,0-16.42,0,1.17,1.17,0,0,0,1.66,1.65,9.23,9.23,0,0,1,13.11,0,1.17,1.17,0,0,0,1.65-1.65Z"/><path class="cls-97" d="M103.79,177.08a8.31,8.31,0,0,0-5.92,2.47,1.17,1.17,0,0,0,1.66,1.65,6,6,0,0,1,8.53,0,1.16,1.16,0,0,0,.83.34,1.13,1.13,0,0,0,.82-.34,1.17,1.17,0,0,0,0-1.65A8.31,8.31,0,0,0,103.79,177.08Z"/><path class="cls-97" d="M103.79,180.37a5.06,5.06,0,0,0-3.59,1.5,1.17,1.17,0,0,0,1.66,1.65,2.72,2.72,0,0,1,3.87,0,1.18,1.18,0,0,0,1.66,0,1.18,1.18,0,0,0,0-1.65A5.07,5.07,0,0,0,103.79,180.37Z"/><circle class="cls-97" cx="103.79" cy="185.45" r="1.51"/></g><g class="cls-98"><path class="cls-99" d="M112,177.24a11.56,11.56,0,0,0-16.42,0,1.17,1.17,0,0,0,1.65,1.65,9.23,9.23,0,0,1,13.11,0,1.16,1.16,0,0,0,.83.34,1.13,1.13,0,0,0,.82-.34A1.17,1.17,0,0,0,112,177.24Z"/><path class="cls-99" d="M103.74,177.05a8.33,8.33,0,0,0-5.93,2.47,1.17,1.17,0,0,0,1.66,1.65,6,6,0,0,1,8.54,0,1.13,1.13,0,0,0,.82.34,1.17,1.17,0,0,0,.83-2A8.29,8.29,0,0,0,103.74,177.05Z"/><path class="cls-99" d="M103.74,180.34a5,5,0,0,0-3.6,1.5,1.17,1.17,0,0,0,1.66,1.65,2.73,2.73,0,0,1,3.88,0,1.17,1.17,0,1,0,1.65-1.65A5,5,0,0,0,103.74,180.34Z"/><circle class="cls-99" cx="103.74" cy="185.41" r="1.51"/></g></g><path class="cls-100" d="M111.12,179.23a1.16,1.16,0,0,1-.83-.34,9.23,9.23,0,0,0-13.11,0,1.17,1.17,0,0,1-1.65-1.65,11.56,11.56,0,0,1,16.42,0,1.17,1.17,0,0,1,0,1.65A1.13,1.13,0,0,1,111.12,179.23Z"/><path class="cls-100" d="M108.83,181.51a1.13,1.13,0,0,1-.82-.34,6,6,0,0,0-8.54,0,1.17,1.17,0,0,1-1.66-1.65,8.34,8.34,0,0,1,11.85,0,1.17,1.17,0,0,1-.83,2Z"/><path class="cls-100" d="M106.51,183.83a1.16,1.16,0,0,1-.83-.34,2.73,2.73,0,0,0-3.88,0,1.17,1.17,0,0,1-1.66-1.65,5.06,5.06,0,0,1,7.19,0,1.17,1.17,0,0,1-.82,2Z"/><circle class="cls-100" cx="103.74" cy="185.41" r="1.51"/></g></g></g></g></svg>