<svg xmlns="http://www.w3.org/2000/svg" viewBox="0 0 59.07 73.4"><defs><style>.cls-1{fill:#5a5a5a;}</style></defs><title>Umidade Solo</title><g id="Camada_2" data-name="Camada 2"><g id="Layer_1" data-name="Layer 1"><path class="cls-1" d="M59.06,21.83c.08-1.4-1-3.14-3.65-5.22l-.1-.08c-.43-.32-.89-.66-1.41-1-.19-.14-.38-.25-.56-.37-9-6.13-13.64,1.1-13.61,1.3-.23.56-.45,1.12-.68,1.69l.48-1.22a8.82,8.82,0,0,0,.26-1.41c.29-2.8.29-8.77-7-13.41-4-2.54-6.54-2.59-7.92-1.19-2,2-1.36,6.7,1.39,9.69,4.69,5,10.16,1.07,10.68,4.49a13.35,13.35,0,0,1-.48,6.16s0,0,0,.07c-3.25,9.76-1.05,14.89-1.35,21.16H33l-8.42,0v-.16H24l-3.34-8.07,11.09-4.6L25.32,14.16,0,24.66,6.45,40.21l11.09-4.6,2.81,6.79H17.19v.16H15.55l0,3.15h1.57l1.24,11.51H20l2.3,16.18,3.82,0H30l3.42,0,11.12,0,2.16-16.19h1.9l.94-11.54h1.54V42.42H49.84l-12.25,0c0-6-2-11.14,1.51-20.93a8.48,8.48,0,0,1,3.43-3.74c2.52-1.35,3.37,5.68,9.49,7,3.54.62,6.71-.61,6.89-2.95ZM7.38,38,2.26,25.59l22.13-9.17,5.12,12.36Z"/><path class="cls-1" d="M22.32,20.7l-.65-.2L21,20.29a.86.86,0,0,0-1.09.58h0l.81,1.5-.5,1.37-2.88,1.54-.55-.88a.81.81,0,0,0-.8-.38,3.83,3.83,0,0,0-4.42-.59l-.1.06a3.83,3.83,0,0,0-1.59,5.19l.57,1.07a3.82,3.82,0,0,0,3.54,2L14.47,33l2.85-1.52,2.86-1.52-.38-.61,1.59-6.72,1.51-.79h0A.87.87,0,0,0,22.32,20.7Zm-6.14,8.57a.76.76,0,0,1-1-.32,5.6,5.6,0,0,1-.08-1.77,5.8,5.8,0,0,1,1.42,1.06A.77.77,0,0,1,16.18,29.27ZM13.92,25,12.19,26A.83.83,0,0,0,11.82,27l1.89,4.24a3.3,3.3,0,0,1-2.84-1.75l-.57-1.07A3.32,3.32,0,0,1,11.67,24l.11-.05a3.29,3.29,0,0,1,3.61.34Zm4.85,2.62-1.36-2.17,2.64-1.41Z"/></g></g></svg>